<?xml version="1.0" encoding="UTF-8" standalone="no"?>
<svg
   width="500"
   zoomAndPan="magnify"
   viewBox="0 0 375 225"
   height="300"
   preserveAspectRatio="xMidYMid meet"
   version="1.0"
   id="svg1049"
   sodipodi:docname="logo.svg"
   inkscape:version="1.2 (dc2aedaf03, 2022-05-15)"
   xmlns:inkscape="http://www.inkscape.org/namespaces/inkscape"
   xmlns:sodipodi="http://sodipodi.sourceforge.net/DTD/sodipodi-0.dtd"
   xmlns="http://www.w3.org/2000/svg"
   xmlns:svg="http://www.w3.org/2000/svg">
  <sodipodi:namedview
     id="namedview1051"
     pagecolor="#ffffff"
     bordercolor="#000000"
     borderopacity="0.25"
     inkscape:showpageshadow="2"
     inkscape:pageopacity="0.0"
     inkscape:pagecheckerboard="0"
     inkscape:deskcolor="#d1d1d1"
     showgrid="false"
     inkscape:zoom="1.1832253"
     inkscape:cx="234.95102"
     inkscape:cy="150.43626"
     inkscape:window-width="1366"
     inkscape:window-height="705"
     inkscape:window-x="1358"
     inkscape:window-y="-8"
     inkscape:window-maximized="1"
     inkscape:current-layer="svg1049" />
  <defs
     id="defs733">
    <g
       id="g713" />
    <clipPath
       id="id1">
      <path
         d="M 35.394531 3.542969 L 339.351562 3.542969 L 339.351562 160.878906 L 35.394531 160.878906 Z M 35.394531 3.542969 "
         clip-rule="nonzero"
         id="path715" />
    </clipPath>
    <clipPath
       id="id2">
      <path
         d="M 136 38.960938 L 184 38.960938 L 184 116 L 136 116 Z M 136 38.960938 "
         clip-rule="nonzero"
         id="path718" />
    </clipPath>
    <clipPath
       id="id3">
      <path
         d="M 127.050781 49 L 237.808594 49 L 237.808594 125.804688 L 127.050781 125.804688 Z M 127.050781 49 "
         clip-rule="nonzero"
         id="path721" />
    </clipPath>
    <clipPath
       id="id4">
      <path
         d="M 180 38.960938 L 229 38.960938 L 229 116 L 180 116 Z M 180 38.960938 "
         clip-rule="nonzero"
         id="path724" />
    </clipPath>
    <clipPath
       id="id5">
      <path
         d="M 68.078125 39 L 90 39 L 90 127.0625 L 68.078125 127.0625 Z M 68.078125 39 "
         clip-rule="nonzero"
         id="path727" />
    </clipPath>
    <clipPath
       id="id6">
      <path
         d="M 275 37.40625 L 297 37.40625 L 297 125.511719 L 275 125.511719 Z M 275 37.40625 "
         clip-rule="nonzero"
         id="path730" />
    </clipPath>
  </defs>
  <g
     clip-path="url(#id1)"
     id="g737"
     style="fill:#ffffff">
    <path
       fill="#000000"
       d="M 57.925781 151.933594 C 50.453125 151.933594 44.40625 145.871094 44.40625 138.433594 L 44.40625 26.015625 C 44.40625 18.578125 50.453125 12.542969 57.925781 12.542969 L 316.84375 12.542969 C 324.292969 12.542969 330.335938 18.578125 330.335938 26.015625 L 330.335938 41.1875 L 327.558594 42.585938 C 323.753906 44.5 321.324219 48.382812 321.324219 52.636719 L 321.324219 111.8125 C 321.324219 116.070312 323.753906 119.976562 327.558594 121.863281 L 330.335938 123.265625 L 330.335938 138.433594 C 330.335938 145.871094 324.292969 151.933594 316.84375 151.933594 Z M 339.351562 138.433594 L 339.351562 26.015625 C 339.351562 13.59375 329.257812 3.542969 316.84375 3.542969 L 57.925781 3.542969 C 45.460938 3.542969 35.394531 13.59375 35.394531 26.015625 L 35.394531 138.433594 C 35.394531 150.855469 45.460938 160.933594 57.925781 160.933594 L 316.84375 160.933594 C 329.257812 160.933594 339.351562 150.855469 339.351562 138.433594 "
       fill-opacity="1"
       fill-rule="nonzero"
       id="path735"
       style="fill:#ffffff" />
  </g>
  <g
     clip-path="url(#id2)"
     id="g741"
     style="fill:#ffffff">
    <path
       fill="#000000"
       d="M 182.359375 115.585938 L 137.757812 115.585938 C 137.546875 115.585938 137.339844 115.546875 137.144531 115.464844 C 136.949219 115.382812 136.777344 115.265625 136.625 115.117188 C 136.476562 114.964844 136.359375 114.789062 136.277344 114.59375 C 136.195312 114.394531 136.15625 114.191406 136.15625 113.976562 L 136.15625 40.574219 C 136.15625 40.359375 136.195312 40.152344 136.277344 39.957031 C 136.359375 39.757812 136.476562 39.585938 136.625 39.433594 C 136.777344 39.28125 136.949219 39.164062 137.144531 39.082031 C 137.339844 39 137.546875 38.960938 137.757812 38.960938 L 172.058594 38.960938 C 172.839844 38.960938 173.613281 39.039062 174.382812 39.191406 C 175.148438 39.347656 175.890625 39.574219 176.613281 39.875 C 177.335938 40.175781 178.019531 40.546875 178.667969 40.980469 C 179.320312 41.417969 179.917969 41.914062 180.472656 42.46875 C 181.023438 43.027344 181.519531 43.628906 181.953125 44.285156 C 182.386719 44.9375 182.753906 45.625 183.050781 46.351562 C 183.351562 47.078125 183.578125 47.824219 183.730469 48.597656 C 183.882812 49.367188 183.960938 50.144531 183.960938 50.929688 L 183.960938 113.976562 C 183.960938 114.191406 183.921875 114.394531 183.839844 114.59375 C 183.757812 114.789062 183.644531 114.964844 183.492188 115.117188 C 183.34375 115.265625 183.167969 115.382812 182.972656 115.464844 C 182.777344 115.546875 182.570312 115.585938 182.359375 115.585938 Z M 139.359375 112.363281 L 180.757812 112.363281 L 180.757812 50.929688 C 180.757812 50.355469 180.699219 49.789062 180.589844 49.226562 C 180.476562 48.660156 180.3125 48.113281 180.09375 47.585938 C 179.875 47.054688 179.605469 46.550781 179.289062 46.074219 C 178.972656 45.597656 178.609375 45.15625 178.207031 44.75 C 177.804688 44.34375 177.363281 43.980469 176.890625 43.660156 C 176.414062 43.34375 175.914062 43.074219 175.386719 42.851562 C 174.859375 42.632812 174.316406 42.464844 173.757812 42.355469 C 173.195312 42.242188 172.632812 42.183594 172.058594 42.183594 L 139.359375 42.183594 Z M 139.359375 112.363281 "
       fill-opacity="1"
       fill-rule="nonzero"
       id="path739"
       style="fill:#ffffff" />
  </g>
  <path
     fill="#000000"
     d="M 182.210938 49.183594 C 182.3125 49.761719 182.359375 50.34375 182.359375 50.929688 L 182.359375 52.40625 L 182.414062 52.40625 L 182.414062 50.929688 C 182.414062 50.34375 182.464844 49.761719 182.5625 49.183594 Z M 182.210938 49.183594 "
     fill-opacity="1"
     fill-rule="nonzero"
     id="path743"
     style="fill:#ffffff" />
  <g
     clip-path="url(#id3)"
     id="g747"
     style="fill:#ffffff">
    <path
       fill="#000000"
       d="M 231.933594 49.183594 L 227.015625 49.183594 L 227.015625 52.40625 L 231.933594 52.40625 C 232.28125 52.40625 232.613281 52.472656 232.933594 52.605469 C 233.253906 52.742188 233.535156 52.929688 233.78125 53.175781 C 234.027344 53.421875 234.214844 53.707031 234.347656 54.03125 C 234.480469 54.351562 234.550781 54.6875 234.550781 55.035156 L 234.550781 119.953125 C 234.550781 120.300781 234.480469 120.636719 234.347656 120.957031 C 234.214844 121.28125 234.027344 121.5625 233.78125 121.8125 C 233.535156 122.058594 233.253906 122.246094 232.933594 122.382812 C 232.613281 122.515625 232.28125 122.582031 231.933594 122.582031 L 132.929688 122.582031 C 132.582031 122.582031 132.25 122.515625 131.929688 122.382812 C 131.609375 122.246094 131.324219 122.058594 131.082031 121.8125 C 130.835938 121.5625 130.644531 121.28125 130.511719 120.957031 C 130.378906 120.636719 130.3125 120.300781 130.3125 119.953125 L 130.3125 55.035156 C 130.3125 54.6875 130.378906 54.351562 130.511719 54.03125 C 130.644531 53.707031 130.835938 53.421875 131.082031 53.175781 C 131.324219 52.929688 131.609375 52.742188 131.929688 52.605469 C 132.25 52.472656 132.582031 52.40625 132.929688 52.40625 L 137.757812 52.40625 L 137.757812 49.183594 L 132.929688 49.183594 C 132.546875 49.183594 132.167969 49.21875 131.792969 49.296875 C 131.417969 49.371094 131.054688 49.484375 130.703125 49.628906 C 130.351562 49.777344 130.015625 49.957031 129.695312 50.171875 C 129.378906 50.382812 129.085938 50.628906 128.816406 50.898438 C 128.546875 51.171875 128.304688 51.464844 128.089844 51.785156 C 127.878906 52.105469 127.699219 52.441406 127.554688 52.796875 C 127.40625 53.152344 127.296875 53.519531 127.222656 53.894531 C 127.144531 54.273438 127.109375 54.652344 127.109375 55.035156 L 127.109375 119.953125 C 127.109375 120.335938 127.144531 120.714844 127.222656 121.09375 C 127.296875 121.46875 127.40625 121.835938 127.554688 122.191406 C 127.699219 122.546875 127.878906 122.882812 128.089844 123.203125 C 128.304688 123.523438 128.546875 123.816406 128.816406 124.089844 C 129.085938 124.359375 129.378906 124.605469 129.695312 124.816406 C 130.015625 125.03125 130.351562 125.210938 130.703125 125.359375 C 131.054688 125.503906 131.421875 125.617188 131.792969 125.691406 C 132.167969 125.769531 132.546875 125.804688 132.929688 125.804688 L 231.933594 125.804688 C 232.316406 125.804688 232.695312 125.769531 233.070312 125.691406 C 233.445312 125.617188 233.808594 125.503906 234.160156 125.359375 C 234.511719 125.210938 234.847656 125.03125 235.167969 124.816406 C 235.484375 124.605469 235.777344 124.359375 236.046875 124.089844 C 236.316406 123.816406 236.558594 123.523438 236.773438 123.203125 C 236.984375 122.882812 237.164062 122.546875 237.308594 122.191406 C 237.457031 121.835938 237.566406 121.46875 237.640625 121.09375 C 237.71875 120.714844 237.753906 120.335938 237.753906 119.953125 L 237.753906 55.035156 C 237.753906 54.652344 237.71875 54.273438 237.640625 53.894531 C 237.566406 53.519531 237.457031 53.152344 237.308594 52.796875 C 237.164062 52.441406 236.984375 52.105469 236.773438 51.785156 C 236.558594 51.464844 236.316406 51.171875 236.046875 50.898438 C 235.777344 50.628906 235.484375 50.382812 235.164062 50.171875 C 234.847656 49.957031 234.511719 49.777344 234.160156 49.628906 C 233.808594 49.480469 233.441406 49.371094 233.066406 49.296875 C 232.695312 49.21875 232.316406 49.183594 231.933594 49.183594 Z M 231.933594 49.183594 "
       fill-opacity="1"
       fill-rule="nonzero"
       id="path745"
       style="fill:#ffffff" />
  </g>
  <g
     clip-path="url(#id4)"
     id="g751"
     style="fill:#ffffff">
    <path
       fill="#000000"
       d="M 227.015625 115.585938 L 182.414062 115.585938 C 182.203125 115.585938 182 115.546875 181.800781 115.464844 C 181.605469 115.382812 181.433594 115.265625 181.28125 115.117188 C 181.132812 114.964844 181.015625 114.789062 180.933594 114.59375 C 180.851562 114.394531 180.8125 114.191406 180.8125 113.976562 L 180.8125 50.929688 C 180.8125 50.144531 180.890625 49.367188 181.042969 48.597656 C 181.195312 47.824219 181.421875 47.078125 181.722656 46.351562 C 182.023438 45.625 182.386719 44.9375 182.824219 44.285156 C 183.257812 43.628906 183.75 43.027344 184.304688 42.46875 C 184.855469 41.914062 185.457031 41.417969 186.105469 40.980469 C 186.753906 40.546875 187.441406 40.175781 188.164062 39.875 C 188.882812 39.574219 189.628906 39.347656 190.394531 39.191406 C 191.160156 39.039062 191.933594 38.960938 192.714844 38.960938 L 227.015625 38.960938 C 227.230469 38.960938 227.433594 39 227.628906 39.082031 C 227.828125 39.164062 228 39.28125 228.148438 39.433594 C 228.300781 39.585938 228.417969 39.757812 228.496094 39.957031 C 228.578125 40.152344 228.621094 40.359375 228.621094 40.574219 L 228.621094 113.976562 C 228.621094 114.191406 228.578125 114.394531 228.496094 114.59375 C 228.417969 114.789062 228.300781 114.964844 228.148438 115.117188 C 228 115.265625 227.828125 115.382812 227.628906 115.464844 C 227.433594 115.546875 227.230469 115.585938 227.015625 115.585938 Z M 184.019531 112.363281 L 225.414062 112.363281 L 225.414062 42.183594 L 192.714844 42.183594 C 192.144531 42.183594 191.578125 42.242188 191.019531 42.355469 C 190.460938 42.464844 189.914062 42.632812 189.386719 42.851562 C 188.859375 43.074219 188.359375 43.34375 187.886719 43.660156 C 187.410156 43.980469 186.972656 44.34375 186.566406 44.75 C 186.164062 45.15625 185.804688 45.597656 185.488281 46.074219 C 185.167969 46.550781 184.902344 47.054688 184.683594 47.585938 C 184.464844 48.113281 184.296875 48.660156 184.1875 49.226562 C 184.074219 49.789062 184.019531 50.355469 184.019531 50.929688 Z M 184.019531 112.363281 "
       fill-opacity="1"
       fill-rule="nonzero"
       id="path749"
       style="fill:#ffffff" />
  </g>
  <path
     fill="#000000"
     d="M 170.601562 58.25 L 149.515625 58.25 C 149.304688 58.25 149.101562 58.210938 148.902344 58.128906 C 148.707031 58.046875 148.535156 57.929688 148.382812 57.78125 C 148.234375 57.628906 148.117188 57.453125 148.035156 57.257812 C 147.957031 57.058594 147.914062 56.855469 147.914062 56.640625 C 147.914062 56.425781 147.957031 56.21875 148.035156 56.023438 C 148.117188 55.824219 148.234375 55.652344 148.382812 55.5 C 148.535156 55.347656 148.707031 55.234375 148.902344 55.152344 C 149.101562 55.070312 149.304688 55.027344 149.515625 55.027344 L 170.601562 55.027344 C 170.8125 55.027344 171.019531 55.070312 171.214844 55.152344 C 171.410156 55.234375 171.582031 55.347656 171.734375 55.5 C 171.882812 55.652344 172 55.824219 172.082031 56.023438 C 172.164062 56.21875 172.203125 56.425781 172.203125 56.640625 C 172.203125 56.855469 172.164062 57.058594 172.082031 57.257812 C 172 57.453125 171.882812 57.628906 171.734375 57.78125 C 171.582031 57.929688 171.410156 58.046875 171.214844 58.128906 C 171.019531 58.210938 170.8125 58.25 170.601562 58.25 Z M 170.601562 58.25 "
     fill-opacity="1"
     fill-rule="nonzero"
     id="path753"
     style="fill:#ffffff" />
  <path
     fill="#000000"
     d="M 170.601562 69.132812 L 149.515625 69.132812 C 149.304688 69.132812 149.101562 69.089844 148.902344 69.007812 C 148.707031 68.929688 148.535156 68.8125 148.382812 68.660156 C 148.234375 68.507812 148.117188 68.335938 148.035156 68.136719 C 147.957031 67.941406 147.914062 67.734375 147.914062 67.519531 C 147.914062 67.308594 147.957031 67.101562 148.035156 66.902344 C 148.117188 66.707031 148.234375 66.53125 148.382812 66.382812 C 148.535156 66.230469 148.707031 66.113281 148.902344 66.03125 C 149.101562 65.949219 149.304688 65.910156 149.515625 65.910156 L 170.601562 65.910156 C 170.8125 65.910156 171.019531 65.949219 171.214844 66.03125 C 171.410156 66.113281 171.582031 66.230469 171.734375 66.382812 C 171.882812 66.53125 172 66.707031 172.082031 66.902344 C 172.164062 67.101562 172.203125 67.308594 172.203125 67.519531 C 172.203125 67.734375 172.164062 67.941406 172.082031 68.136719 C 172 68.335938 171.882812 68.507812 171.734375 68.660156 C 171.582031 68.8125 171.410156 68.929688 171.214844 69.007812 C 171.019531 69.089844 170.8125 69.132812 170.601562 69.132812 Z M 170.601562 69.132812 "
     fill-opacity="1"
     fill-rule="nonzero"
     id="path755"
     style="fill:#ffffff" />
  <path
     fill="#000000"
     d="M 170.601562 80.011719 L 149.515625 80.011719 C 149.304688 80.011719 149.101562 79.972656 148.902344 79.890625 C 148.707031 79.808594 148.535156 79.691406 148.382812 79.539062 C 148.234375 79.390625 148.117188 79.214844 148.035156 79.015625 C 147.957031 78.820312 147.914062 78.613281 147.914062 78.402344 C 147.914062 78.1875 147.957031 77.980469 148.035156 77.785156 C 148.117188 77.585938 148.234375 77.414062 148.382812 77.261719 C 148.535156 77.109375 148.707031 76.992188 148.902344 76.910156 C 149.101562 76.828125 149.304688 76.789062 149.515625 76.789062 L 170.601562 76.789062 C 170.8125 76.789062 171.019531 76.828125 171.214844 76.910156 C 171.410156 76.992188 171.582031 77.109375 171.734375 77.261719 C 171.882812 77.414062 172 77.585938 172.082031 77.785156 C 172.164062 77.980469 172.203125 78.1875 172.203125 78.402344 C 172.203125 78.613281 172.164062 78.820312 172.082031 79.015625 C 172 79.214844 171.882812 79.390625 171.734375 79.539062 C 171.582031 79.691406 171.410156 79.808594 171.214844 79.890625 C 171.019531 79.972656 170.8125 80.011719 170.601562 80.011719 Z M 170.601562 80.011719 "
     fill-opacity="1"
     fill-rule="nonzero"
     id="path757"
     style="fill:#ffffff" />
  <path
     fill="#000000"
     d="M 170.601562 90.894531 L 149.515625 90.894531 C 149.304688 90.894531 149.101562 90.851562 148.902344 90.769531 C 148.707031 90.6875 148.535156 90.574219 148.382812 90.421875 C 148.234375 90.269531 148.117188 90.097656 148.035156 89.898438 C 147.957031 89.699219 147.914062 89.496094 147.914062 89.28125 C 147.914062 89.066406 147.957031 88.863281 148.035156 88.664062 C 148.117188 88.46875 148.234375 88.292969 148.382812 88.140625 C 148.535156 87.992188 148.707031 87.875 148.902344 87.792969 C 149.101562 87.710938 149.304688 87.671875 149.515625 87.671875 L 170.601562 87.671875 C 170.8125 87.671875 171.019531 87.710938 171.214844 87.792969 C 171.410156 87.875 171.582031 87.992188 171.734375 88.140625 C 171.882812 88.292969 172 88.46875 172.082031 88.664062 C 172.164062 88.863281 172.203125 89.066406 172.203125 89.28125 C 172.203125 89.496094 172.164062 89.699219 172.082031 89.898438 C 172 90.097656 171.882812 90.269531 171.734375 90.421875 C 171.582031 90.574219 171.410156 90.6875 171.214844 90.769531 C 171.019531 90.851562 170.8125 90.894531 170.601562 90.894531 Z M 170.601562 90.894531 "
     fill-opacity="1"
     fill-rule="nonzero"
     id="path759"
     style="fill:#ffffff" />
  <path
     fill="#000000"
     d="M 170.601562 101.773438 L 149.515625 101.773438 C 149.304688 101.773438 149.101562 101.734375 148.902344 101.652344 C 148.707031 101.570312 148.535156 101.453125 148.382812 101.300781 C 148.234375 101.152344 148.117188 100.976562 148.035156 100.777344 C 147.957031 100.582031 147.914062 100.375 147.914062 100.164062 C 147.914062 99.949219 147.957031 99.742188 148.035156 99.546875 C 148.117188 99.347656 148.234375 99.175781 148.382812 99.023438 C 148.535156 98.871094 148.707031 98.753906 148.902344 98.671875 C 149.101562 98.589844 149.304688 98.550781 149.515625 98.550781 L 170.601562 98.550781 C 170.8125 98.550781 171.019531 98.589844 171.214844 98.671875 C 171.410156 98.753906 171.582031 98.871094 171.734375 99.023438 C 171.882812 99.175781 172 99.347656 172.082031 99.546875 C 172.164062 99.742188 172.203125 99.949219 172.203125 100.164062 C 172.203125 100.375 172.164062 100.582031 172.082031 100.777344 C 172 100.976562 171.882812 101.152344 171.734375 101.300781 C 171.582031 101.453125 171.410156 101.570312 171.214844 101.652344 C 171.019531 101.734375 170.8125 101.773438 170.601562 101.773438 Z M 170.601562 101.773438 "
     fill-opacity="1"
     fill-rule="nonzero"
     id="path761"
     style="fill:#ffffff" />
  <path
     fill="#000000"
     d="M 215.257812 58.25 L 194.171875 58.25 C 193.960938 58.25 193.757812 58.210938 193.558594 58.128906 C 193.363281 58.046875 193.191406 57.929688 193.039062 57.78125 C 192.890625 57.628906 192.773438 57.453125 192.691406 57.257812 C 192.613281 57.058594 192.570312 56.855469 192.570312 56.640625 C 192.570312 56.425781 192.613281 56.21875 192.691406 56.023438 C 192.773438 55.824219 192.890625 55.652344 193.039062 55.5 C 193.191406 55.347656 193.363281 55.234375 193.558594 55.152344 C 193.757812 55.070312 193.960938 55.027344 194.171875 55.027344 L 215.257812 55.027344 C 215.46875 55.027344 215.675781 55.070312 215.871094 55.152344 C 216.066406 55.234375 216.242188 55.347656 216.390625 55.5 C 216.542969 55.652344 216.65625 55.824219 216.738281 56.023438 C 216.820312 56.21875 216.859375 56.425781 216.859375 56.640625 C 216.859375 56.855469 216.820312 57.058594 216.738281 57.257812 C 216.65625 57.453125 216.542969 57.628906 216.390625 57.78125 C 216.242188 57.929688 216.066406 58.046875 215.871094 58.128906 C 215.675781 58.210938 215.46875 58.25 215.257812 58.25 Z M 215.257812 58.25 "
     fill-opacity="1"
     fill-rule="nonzero"
     id="path763"
     style="fill:#ffffff" />
  <path
     fill="#000000"
     d="M 215.257812 69.132812 L 194.171875 69.132812 C 193.960938 69.132812 193.757812 69.089844 193.558594 69.007812 C 193.363281 68.929688 193.191406 68.8125 193.039062 68.660156 C 192.890625 68.507812 192.773438 68.335938 192.691406 68.136719 C 192.613281 67.941406 192.570312 67.734375 192.570312 67.519531 C 192.570312 67.308594 192.613281 67.101562 192.691406 66.902344 C 192.773438 66.707031 192.890625 66.53125 193.039062 66.382812 C 193.191406 66.230469 193.363281 66.113281 193.558594 66.03125 C 193.757812 65.949219 193.960938 65.910156 194.171875 65.910156 L 215.257812 65.910156 C 215.46875 65.910156 215.675781 65.949219 215.871094 66.03125 C 216.066406 66.113281 216.242188 66.230469 216.390625 66.382812 C 216.542969 66.53125 216.65625 66.707031 216.738281 66.902344 C 216.820312 67.101562 216.859375 67.308594 216.859375 67.519531 C 216.859375 67.734375 216.820312 67.941406 216.738281 68.136719 C 216.65625 68.335938 216.542969 68.507812 216.390625 68.660156 C 216.242188 68.8125 216.066406 68.929688 215.871094 69.007812 C 215.675781 69.089844 215.46875 69.132812 215.257812 69.132812 Z M 215.257812 69.132812 "
     fill-opacity="1"
     fill-rule="nonzero"
     id="path765"
     style="fill:#ffffff" />
  <path
     fill="#000000"
     d="M 215.257812 80.011719 L 194.171875 80.011719 C 193.960938 80.011719 193.757812 79.972656 193.558594 79.890625 C 193.363281 79.808594 193.191406 79.691406 193.039062 79.539062 C 192.890625 79.390625 192.773438 79.214844 192.691406 79.015625 C 192.613281 78.820312 192.570312 78.613281 192.570312 78.402344 C 192.570312 78.1875 192.613281 77.980469 192.691406 77.785156 C 192.773438 77.585938 192.890625 77.414062 193.039062 77.261719 C 193.191406 77.109375 193.363281 76.992188 193.558594 76.910156 C 193.757812 76.828125 193.960938 76.789062 194.171875 76.789062 L 215.257812 76.789062 C 215.46875 76.789062 215.675781 76.828125 215.871094 76.910156 C 216.066406 76.992188 216.242188 77.109375 216.390625 77.261719 C 216.542969 77.414062 216.65625 77.585938 216.738281 77.785156 C 216.820312 77.980469 216.859375 78.1875 216.859375 78.402344 C 216.859375 78.613281 216.820312 78.820312 216.738281 79.015625 C 216.65625 79.214844 216.542969 79.390625 216.390625 79.539062 C 216.242188 79.691406 216.066406 79.808594 215.871094 79.890625 C 215.675781 79.972656 215.46875 80.011719 215.257812 80.011719 Z M 215.257812 80.011719 "
     fill-opacity="1"
     fill-rule="nonzero"
     id="path767"
     style="fill:#ffffff" />
  <path
     fill="#000000"
     d="M 215.257812 90.894531 L 194.171875 90.894531 C 193.960938 90.894531 193.757812 90.851562 193.558594 90.769531 C 193.363281 90.6875 193.191406 90.574219 193.039062 90.421875 C 192.890625 90.269531 192.773438 90.097656 192.691406 89.898438 C 192.613281 89.699219 192.570312 89.496094 192.570312 89.28125 C 192.570312 89.066406 192.613281 88.863281 192.691406 88.664062 C 192.773438 88.46875 192.890625 88.292969 193.039062 88.140625 C 193.191406 87.992188 193.363281 87.875 193.558594 87.792969 C 193.757812 87.710938 193.960938 87.671875 194.171875 87.671875 L 215.257812 87.671875 C 215.46875 87.671875 215.675781 87.710938 215.871094 87.792969 C 216.066406 87.875 216.242188 87.992188 216.390625 88.140625 C 216.542969 88.292969 216.65625 88.46875 216.738281 88.664062 C 216.820312 88.863281 216.859375 89.066406 216.859375 89.28125 C 216.859375 89.496094 216.820312 89.699219 216.738281 89.898438 C 216.65625 90.097656 216.542969 90.269531 216.390625 90.421875 C 216.242188 90.574219 216.066406 90.6875 215.871094 90.769531 C 215.675781 90.851562 215.46875 90.894531 215.257812 90.894531 Z M 215.257812 90.894531 "
     fill-opacity="1"
     fill-rule="nonzero"
     id="path769"
     style="fill:#ffffff" />
  <path
     fill="#000000"
     d="M 215.257812 101.773438 L 194.171875 101.773438 C 193.960938 101.773438 193.757812 101.734375 193.558594 101.652344 C 193.363281 101.570312 193.191406 101.453125 193.039062 101.300781 C 192.890625 101.152344 192.773438 100.976562 192.691406 100.777344 C 192.613281 100.582031 192.570312 100.375 192.570312 100.164062 C 192.570312 99.949219 192.613281 99.742188 192.691406 99.546875 C 192.773438 99.347656 192.890625 99.175781 193.039062 99.023438 C 193.191406 98.871094 193.363281 98.753906 193.558594 98.671875 C 193.757812 98.589844 193.960938 98.550781 194.171875 98.550781 L 215.257812 98.550781 C 215.46875 98.550781 215.675781 98.589844 215.871094 98.671875 C 216.066406 98.753906 216.242188 98.871094 216.390625 99.023438 C 216.542969 99.175781 216.65625 99.347656 216.738281 99.546875 C 216.820312 99.742188 216.859375 99.949219 216.859375 100.164062 C 216.859375 100.375 216.820312 100.582031 216.738281 100.777344 C 216.65625 100.976562 216.542969 101.152344 216.390625 101.300781 C 216.242188 101.453125 216.066406 101.570312 215.871094 101.652344 C 215.675781 101.734375 215.46875 101.773438 215.257812 101.773438 Z M 215.257812 101.773438 "
     fill-opacity="1"
     fill-rule="nonzero"
     id="path771"
     style="fill:#ffffff" />
  <path
     fill="#000000"
     d="M 109.535156 105.285156 C 109.003906 105.285156 108.550781 105.097656 108.179688 104.71875 C 107.476562 104.011719 106.808594 103.273438 106.175781 102.503906 C 105.546875 101.730469 104.953125 100.929688 104.402344 100.097656 C 103.851562 99.269531 103.339844 98.414062 102.871094 97.53125 C 102.402344 96.652344 101.976562 95.75 101.597656 94.828125 C 101.21875 93.90625 100.882812 92.96875 100.59375 92.011719 C 100.304688 91.058594 100.0625 90.089844 99.871094 89.113281 C 99.675781 88.132812 99.53125 87.148438 99.433594 86.152344 C 99.335938 85.160156 99.289062 84.164062 99.289062 83.167969 C 99.289062 82.167969 99.335938 81.171875 99.433594 80.179688 C 99.53125 79.1875 99.675781 78.199219 99.871094 77.222656 C 100.0625 76.242188 100.304688 75.277344 100.59375 74.320312 C 100.882812 73.367188 101.21875 72.425781 101.597656 71.503906 C 101.976562 70.582031 102.402344 69.683594 102.871094 68.800781 C 103.339844 67.921875 103.851562 67.066406 104.402344 66.234375 C 104.953125 65.40625 105.546875 64.605469 106.175781 63.832031 C 106.808594 63.058594 107.476562 62.320312 108.179688 61.613281 C 108.359375 61.433594 108.566406 61.296875 108.800781 61.199219 C 109.035156 61.101562 109.28125 61.050781 109.535156 61.050781 C 109.789062 61.050781 110.035156 61.101562 110.269531 61.199219 C 110.503906 61.296875 110.710938 61.433594 110.890625 61.613281 C 111.070312 61.796875 111.210938 62.003906 111.308594 62.238281 C 111.40625 62.476562 111.453125 62.71875 111.453125 62.976562 C 111.453125 63.230469 111.40625 63.476562 111.308594 63.710938 C 111.210938 63.945312 111.070312 64.15625 110.890625 64.335938 C 110.277344 64.953125 109.695312 65.597656 109.144531 66.273438 C 108.59375 66.949219 108.078125 67.648438 107.59375 68.375 C 107.113281 69.097656 106.664062 69.847656 106.257812 70.617188 C 105.847656 71.386719 105.476562 72.171875 105.144531 72.976562 C 104.8125 73.785156 104.519531 74.605469 104.265625 75.4375 C 104.015625 76.273438 103.804688 77.117188 103.636719 77.972656 C 103.464844 78.828125 103.339844 79.691406 103.253906 80.558594 C 103.167969 81.425781 103.125 82.296875 103.125 83.167969 C 103.125 84.039062 103.167969 84.910156 103.253906 85.777344 C 103.339844 86.644531 103.464844 87.503906 103.636719 88.359375 C 103.804688 89.214844 104.015625 90.0625 104.265625 90.894531 C 104.519531 91.730469 104.8125 92.550781 105.144531 93.355469 C 105.476562 94.160156 105.847656 94.949219 106.257812 95.71875 C 106.664062 96.488281 107.113281 97.234375 107.59375 97.960938 C 108.078125 98.6875 108.59375 99.386719 109.144531 100.058594 C 109.695312 100.734375 110.277344 101.382812 110.890625 102 C 111.167969 102.273438 111.339844 102.601562 111.417969 102.984375 C 111.492188 103.363281 111.457031 103.734375 111.308594 104.09375 C 111.160156 104.453125 110.921875 104.742188 110.601562 104.957031 C 110.277344 105.175781 109.921875 105.28125 109.535156 105.285156 Z M 109.535156 105.285156 "
     fill-opacity="1"
     fill-rule="nonzero"
     id="path773"
     style="fill:#ffffff" />
  <path
     fill="#000000"
     d="M 99.464844 115.378906 C 98.933594 115.378906 98.480469 115.191406 98.105469 114.816406 C 97.074219 113.78125 96.09375 112.695312 95.164062 111.5625 C 94.238281 110.429688 93.367188 109.253906 92.554688 108.035156 C 91.742188 106.816406 90.988281 105.558594 90.300781 104.265625 C 89.609375 102.972656 88.988281 101.648438 88.425781 100.292969 C 87.867188 98.941406 87.375 97.5625 86.949219 96.160156 C 86.527344 94.753906 86.171875 93.335938 85.886719 91.898438 C 85.601562 90.460938 85.386719 89.011719 85.242188 87.550781 C 85.097656 86.09375 85.027344 84.628906 85.027344 83.164062 C 85.027344 81.699219 85.097656 80.234375 85.242188 78.777344 C 85.386719 77.316406 85.601562 75.867188 85.886719 74.429688 C 86.171875 72.992188 86.527344 71.574219 86.949219 70.167969 C 87.375 68.765625 87.867188 67.386719 88.425781 66.03125 C 88.988281 64.679688 89.609375 63.355469 90.300781 62.0625 C 90.988281 60.769531 91.742188 59.511719 92.554688 58.292969 C 93.367188 57.074219 94.238281 55.898438 95.164062 54.765625 C 96.09375 53.632812 97.074219 52.546875 98.105469 51.511719 C 98.289062 51.332031 98.496094 51.191406 98.730469 51.09375 C 98.96875 50.996094 99.210938 50.949219 99.46875 50.949219 C 99.722656 50.949219 99.96875 51 100.203125 51.097656 C 100.4375 51.195312 100.644531 51.335938 100.824219 51.515625 C 101.003906 51.695312 101.144531 51.90625 101.242188 52.140625 C 101.339844 52.378906 101.386719 52.625 101.386719 52.878906 C 101.386719 53.132812 101.339844 53.378906 101.242188 53.617188 C 101.144531 53.851562 101.003906 54.058594 100.824219 54.242188 C 99.878906 55.1875 98.984375 56.179688 98.136719 57.21875 C 97.292969 58.253906 96.496094 59.328125 95.757812 60.441406 C 95.015625 61.558594 94.332031 62.707031 93.703125 63.886719 C 93.074219 65.070312 92.503906 66.277344 91.992188 67.515625 C 91.480469 68.753906 91.03125 70.011719 90.644531 71.296875 C 90.257812 72.578125 89.933594 73.875 89.675781 75.1875 C 89.414062 76.503906 89.21875 77.824219 89.085938 79.160156 C 88.957031 80.492188 88.890625 81.828125 88.890625 83.167969 C 88.890625 84.507812 88.957031 85.84375 89.085938 87.175781 C 89.21875 88.507812 89.414062 89.832031 89.675781 91.144531 C 89.933594 92.460938 90.257812 93.757812 90.644531 95.039062 C 91.03125 96.320312 91.480469 97.582031 91.992188 98.816406 C 92.503906 100.054688 93.074219 101.265625 93.703125 102.445312 C 94.332031 103.628906 95.015625 104.777344 95.757812 105.890625 C 96.496094 107.003906 97.292969 108.082031 98.136719 109.117188 C 98.984375 110.152344 99.878906 111.144531 100.824219 112.09375 C 101.097656 112.367188 101.273438 112.695312 101.347656 113.078125 C 101.425781 113.460938 101.386719 113.832031 101.238281 114.191406 C 101.089844 114.550781 100.855469 114.839844 100.53125 115.054688 C 100.210938 115.273438 99.855469 115.378906 99.464844 115.378906 Z M 99.464844 115.378906 "
     fill-opacity="1"
     fill-rule="nonzero"
     id="path775"
     style="fill:#ffffff" />
  <g
     clip-path="url(#id5)"
     id="g779"
     style="fill:#ffffff">
    <path
       fill="#000000"
       d="M 87.75 127.125 C 87.21875 127.125 86.765625 126.9375 86.394531 126.558594 C 84.976562 125.136719 83.632812 123.652344 82.359375 122.097656 C 81.085938 120.542969 79.894531 118.929688 78.78125 117.261719 C 77.667969 115.589844 76.636719 113.867188 75.691406 112.09375 C 74.746094 110.324219 73.890625 108.507812 73.125 106.652344 C 72.355469 104.792969 71.683594 102.902344 71.101562 100.980469 C 70.519531 99.058594 70.03125 97.109375 69.640625 95.140625 C 69.25 93.167969 68.957031 91.183594 68.757812 89.183594 C 68.5625 87.183594 68.464844 85.175781 68.464844 83.167969 C 68.464844 81.15625 68.5625 79.152344 68.757812 77.152344 C 68.957031 75.152344 69.25 73.167969 69.640625 71.195312 C 70.03125 69.222656 70.519531 67.277344 71.101562 65.351562 C 71.683594 63.429688 72.355469 61.539062 73.125 59.683594 C 73.890625 57.828125 74.746094 56.011719 75.691406 54.238281 C 76.636719 52.464844 77.667969 50.746094 78.78125 49.074219 C 79.894531 47.402344 81.085938 45.789062 82.359375 44.238281 C 83.632812 42.683594 84.976562 41.195312 86.394531 39.773438 C 86.574219 39.59375 86.78125 39.453125 87.019531 39.355469 C 87.253906 39.257812 87.5 39.210938 87.753906 39.210938 C 88.007812 39.210938 88.253906 39.257812 88.492188 39.355469 C 88.726562 39.453125 88.933594 39.59375 89.117188 39.773438 C 89.296875 39.957031 89.433594 40.164062 89.53125 40.402344 C 89.628906 40.636719 89.679688 40.882812 89.679688 41.140625 C 89.679688 41.394531 89.632812 41.640625 89.535156 41.878906 C 89.4375 42.113281 89.296875 42.324219 89.117188 42.503906 C 87.789062 43.835938 86.527344 45.230469 85.335938 46.6875 C 84.144531 48.140625 83.027344 49.652344 81.980469 51.21875 C 80.9375 52.785156 79.972656 54.398438 79.085938 56.0625 C 78.203125 57.722656 77.398438 59.421875 76.679688 61.164062 C 75.960938 62.902344 75.328125 64.675781 74.785156 66.476562 C 74.238281 68.28125 73.78125 70.105469 73.414062 71.953125 C 73.050781 73.800781 72.773438 75.664062 72.589844 77.535156 C 72.40625 79.410156 72.3125 81.289062 72.3125 83.175781 C 72.3125 85.058594 72.40625 86.9375 72.589844 88.8125 C 72.773438 90.6875 73.050781 92.546875 73.414062 94.394531 C 73.78125 96.242188 74.238281 98.070312 74.785156 99.871094 C 75.328125 101.671875 75.960938 103.445312 76.679688 105.1875 C 77.398438 106.925781 78.203125 108.625 79.085938 110.289062 C 79.972656 111.949219 80.9375 113.5625 81.980469 115.128906 C 83.027344 116.695312 84.144531 118.207031 85.335938 119.664062 C 86.527344 121.121094 87.789062 122.511719 89.117188 123.84375 C 89.390625 124.121094 89.566406 124.449219 89.640625 124.832031 C 89.714844 125.210938 89.679688 125.582031 89.53125 125.941406 C 89.382812 126.300781 89.148438 126.589844 88.824219 126.804688 C 88.503906 127.023438 88.148438 127.132812 87.757812 127.132812 Z M 87.75 127.125 "
       fill-opacity="1"
       fill-rule="nonzero"
       id="path777"
       style="fill:#ffffff" />
  </g>
  <path
     fill="#000000"
     d="M 255.566406 103.730469 C 256.09375 103.730469 256.546875 103.542969 256.921875 103.167969 C 257.625 102.460938 258.292969 101.71875 258.921875 100.949219 C 259.554688 100.175781 260.144531 99.375 260.699219 98.542969 C 261.25 97.714844 261.761719 96.859375 262.230469 95.980469 C 262.699219 95.097656 263.121094 94.195312 263.503906 93.273438 C 263.882812 92.351562 264.21875 91.414062 264.507812 90.457031 C 264.792969 89.503906 265.035156 88.535156 265.230469 87.558594 C 265.425781 86.578125 265.570312 85.59375 265.667969 84.601562 C 265.765625 83.605469 265.8125 82.609375 265.8125 81.613281 C 265.8125 80.613281 265.765625 79.621094 265.667969 78.625 C 265.570312 77.632812 265.425781 76.648438 265.230469 75.667969 C 265.035156 74.691406 264.792969 73.722656 264.507812 72.765625 C 264.21875 71.8125 263.882812 70.875 263.503906 69.953125 C 263.121094 69.03125 262.699219 68.128906 262.230469 67.246094 C 261.761719 66.367188 261.25 65.511719 260.699219 64.679688 C 260.144531 63.851562 259.554688 63.050781 258.921875 62.277344 C 258.292969 61.507812 257.625 60.765625 256.921875 60.058594 C 256.742188 59.878906 256.535156 59.742188 256.300781 59.644531 C 256.066406 59.546875 255.820312 59.496094 255.566406 59.496094 C 255.3125 59.496094 255.066406 59.546875 254.832031 59.644531 C 254.597656 59.742188 254.390625 59.882812 254.210938 60.0625 C 254.027344 60.242188 253.890625 60.449219 253.792969 60.683594 C 253.695312 60.921875 253.648438 61.167969 253.648438 61.421875 C 253.648438 61.675781 253.695312 61.921875 253.792969 62.15625 C 253.890625 62.394531 254.027344 62.601562 254.207031 62.78125 C 254.820312 63.398438 255.40625 64.046875 255.957031 64.71875 C 256.507812 65.394531 257.023438 66.09375 257.507812 66.820312 C 257.988281 67.546875 258.433594 68.292969 258.84375 69.0625 C 259.253906 69.832031 259.625 70.617188 259.957031 71.425781 C 260.289062 72.230469 260.582031 73.050781 260.832031 73.882812 C 261.085938 74.71875 261.296875 75.5625 261.464844 76.417969 C 261.636719 77.273438 261.761719 78.136719 261.847656 79.003906 C 261.933594 79.871094 261.976562 80.742188 261.976562 81.613281 C 261.976562 82.484375 261.933594 83.355469 261.847656 84.222656 C 261.761719 85.089844 261.636719 85.953125 261.464844 86.808594 C 261.296875 87.664062 261.085938 88.507812 260.832031 89.339844 C 260.582031 90.175781 260.289062 90.996094 259.957031 91.800781 C 259.625 92.609375 259.253906 93.394531 258.84375 94.164062 C 258.433594 94.933594 257.988281 95.679688 257.507812 96.40625 C 257.023438 97.132812 256.507812 97.832031 255.957031 98.507812 C 255.40625 99.179688 254.820312 99.828125 254.207031 100.445312 C 253.933594 100.71875 253.757812 101.046875 253.683594 101.429688 C 253.609375 101.8125 253.644531 102.179688 253.792969 102.539062 C 253.941406 102.898438 254.175781 103.1875 254.5 103.40625 C 254.820312 103.621094 255.175781 103.730469 255.566406 103.730469 Z M 255.566406 103.730469 "
     fill-opacity="1"
     fill-rule="nonzero"
     id="path781"
     style="fill:#ffffff" />
  <path
     fill="#000000"
     d="M 265.636719 113.824219 C 266.164062 113.828125 266.617188 113.640625 266.992188 113.261719 C 268.027344 112.226562 269.007812 111.140625 269.9375 110.007812 C 270.863281 108.875 271.734375 107.699219 272.546875 106.480469 C 273.359375 105.261719 274.109375 104.003906 274.800781 102.710938 C 275.488281 101.417969 276.113281 100.09375 276.671875 98.742188 C 277.234375 97.386719 277.726562 96.007812 278.148438 94.605469 C 278.574219 93.203125 278.929688 91.78125 279.214844 90.34375 C 279.5 88.90625 279.714844 87.457031 279.859375 85.996094 C 280 84.539062 280.074219 83.078125 280.074219 81.609375 C 280.074219 80.144531 280 78.679688 279.859375 77.222656 C 279.714844 75.761719 279.5 74.316406 279.214844 72.875 C 278.929688 71.4375 278.574219 70.019531 278.148438 68.617188 C 277.726562 67.210938 277.234375 65.832031 276.671875 64.480469 C 276.113281 63.125 275.488281 61.800781 274.800781 60.507812 C 274.109375 59.214844 273.359375 57.960938 272.546875 56.742188 C 271.734375 55.523438 270.863281 54.34375 269.9375 53.210938 C 269.007812 52.078125 268.027344 50.996094 266.992188 49.957031 C 266.8125 49.777344 266.605469 49.636719 266.367188 49.542969 C 266.132812 49.445312 265.886719 49.394531 265.632812 49.394531 C 265.378906 49.394531 265.132812 49.445312 264.898438 49.542969 C 264.664062 49.640625 264.453125 49.78125 264.273438 49.960938 C 264.09375 50.144531 263.957031 50.351562 263.859375 50.585938 C 263.761719 50.824219 263.714844 51.070312 263.714844 51.324219 C 263.714844 51.582031 263.761719 51.828125 263.859375 52.0625 C 263.957031 52.296875 264.097656 52.507812 264.277344 52.6875 C 265.21875 53.636719 266.117188 54.628906 266.960938 55.664062 C 267.808594 56.699219 268.601562 57.773438 269.34375 58.890625 C 270.085938 60.003906 270.769531 61.152344 271.398438 62.332031 C 272.027344 63.515625 272.597656 64.722656 273.109375 65.960938 C 273.617188 67.199219 274.066406 68.460938 274.457031 69.742188 C 274.84375 71.023438 275.167969 72.320312 275.425781 73.632812 C 275.6875 74.949219 275.882812 76.273438 276.011719 77.605469 C 276.144531 78.9375 276.210938 80.273438 276.210938 81.613281 C 276.210938 82.953125 276.144531 84.289062 276.011719 85.621094 C 275.882812 86.953125 275.6875 88.277344 275.425781 89.589844 C 275.167969 90.90625 274.84375 92.203125 274.457031 93.484375 C 274.066406 94.765625 273.617188 96.027344 273.109375 97.265625 C 272.597656 98.503906 272.027344 99.710938 271.398438 100.894531 C 270.769531 102.074219 270.085938 103.222656 269.34375 104.335938 C 268.601562 105.453125 267.808594 106.527344 266.960938 107.5625 C 266.117188 108.597656 265.21875 109.589844 264.277344 110.539062 C 264.003906 110.816406 263.828125 111.144531 263.75 111.523438 C 263.675781 111.90625 263.710938 112.277344 263.859375 112.636719 C 264.007812 112.996094 264.246094 113.285156 264.566406 113.5 C 264.890625 113.71875 265.246094 113.824219 265.636719 113.824219 Z M 265.636719 113.824219 "
     fill-opacity="1"
     fill-rule="nonzero"
     id="path783"
     style="fill:#ffffff" />
  <g
     clip-path="url(#id6)"
     id="g787"
     style="fill:#ffffff">
    <path
       fill="#000000"
       d="M 277.347656 125.570312 C 277.878906 125.570312 278.332031 125.382812 278.707031 125.003906 C 280.125 123.585938 281.46875 122.097656 282.742188 120.542969 C 284.011719 118.988281 285.207031 117.378906 286.320312 115.707031 C 287.433594 114.035156 288.464844 112.3125 289.40625 110.542969 C 290.351562 108.769531 291.210938 106.953125 291.976562 105.097656 C 292.742188 103.242188 293.417969 101.351562 294 99.425781 C 294.582031 97.503906 295.070312 95.554688 295.460938 93.585938 C 295.851562 91.613281 296.144531 89.628906 296.339844 87.628906 C 296.539062 85.628906 296.636719 83.621094 296.636719 81.613281 C 296.636719 79.601562 296.539062 77.597656 296.339844 75.597656 C 296.144531 73.597656 295.851562 71.613281 295.460938 69.640625 C 295.070312 67.671875 294.582031 65.722656 294 63.800781 C 293.417969 61.875 292.742188 59.984375 291.976562 58.128906 C 291.210938 56.273438 290.351562 54.457031 289.40625 52.683594 C 288.464844 50.914062 287.433594 49.191406 286.320312 47.519531 C 285.207031 45.847656 284.011719 44.238281 282.742188 42.683594 C 281.46875 41.128906 280.125 39.640625 278.707031 38.222656 C 278.527344 38.039062 278.320312 37.902344 278.082031 37.804688 C 277.847656 37.703125 277.601562 37.65625 277.347656 37.65625 C 277.089844 37.65625 276.84375 37.707031 276.609375 37.804688 C 276.375 37.902344 276.164062 38.039062 275.984375 38.222656 C 275.804688 38.402344 275.664062 38.609375 275.566406 38.847656 C 275.46875 39.082031 275.421875 39.328125 275.421875 39.585938 C 275.421875 39.839844 275.46875 40.085938 275.566406 40.324219 C 275.664062 40.558594 275.804688 40.769531 275.984375 40.949219 C 277.3125 42.28125 278.574219 43.675781 279.765625 45.132812 C 280.957031 46.589844 282.074219 48.101562 283.117188 49.667969 C 284.164062 51.230469 285.128906 52.847656 286.011719 54.507812 C 286.898438 56.167969 287.699219 57.871094 288.421875 59.609375 C 289.140625 61.351562 289.769531 63.121094 290.316406 64.925781 C 290.863281 66.726562 291.316406 68.550781 291.683594 70.398438 C 292.050781 72.246094 292.328125 74.109375 292.511719 75.984375 C 292.695312 77.859375 292.785156 79.738281 292.785156 81.621094 C 292.785156 83.503906 292.695312 85.382812 292.511719 87.257812 C 292.328125 89.132812 292.050781 90.996094 291.683594 92.84375 C 291.316406 94.691406 290.863281 96.515625 290.316406 98.316406 C 289.769531 100.121094 289.140625 101.890625 288.421875 103.632812 C 287.699219 105.371094 286.898438 107.074219 286.011719 108.734375 C 285.128906 110.394531 284.164062 112.007812 283.117188 113.574219 C 282.074219 115.140625 280.957031 116.652344 279.765625 118.109375 C 278.574219 119.566406 277.3125 120.960938 275.984375 122.292969 C 275.710938 122.566406 275.535156 122.894531 275.460938 123.277344 C 275.382812 123.660156 275.421875 124.03125 275.570312 124.390625 C 275.71875 124.75 275.953125 125.035156 276.277344 125.253906 C 276.597656 125.46875 276.953125 125.578125 277.339844 125.578125 Z M 277.347656 125.570312 "
       fill-opacity="1"
       fill-rule="nonzero"
       id="path785"
       style="fill:#ffffff" />
  </g>
  <g
     fill="#000000"
     fill-opacity="1"
     id="g795"
     style="fill:#ffffff">
    <g
       transform="translate(20.378547, 195.165904)"
       id="g793"
       style="fill:#ffffff">
      <g
         id="g791"
         style="fill:#ffffff">
        <path
           d="M 31.347656 -23.113281 C 31.347656 -23.417969 31.144531 -23.621094 30.84375 -23.621094 L 25.613281 -23.621094 C 25.441406 -23.621094 25.273438 -23.519531 25.207031 -23.386719 L 16.738281 -7.457031 L 8.539062 -23.351562 C 8.4375 -23.519531 8.300781 -23.621094 8.132812 -23.621094 L 2.867188 -23.621094 C 2.566406 -23.621094 2.363281 -23.417969 2.363281 -23.113281 L 2.363281 -0.507812 C 2.363281 -0.203125 2.566406 0 2.867188 0 L 7.695312 0 C 7.996094 0 8.199219 -0.203125 8.199219 -0.507812 L 8.132812 -13.464844 L 14.613281 -0.269531 C 14.710938 -0.101562 14.847656 0 15.050781 0 L 18.558594 0 C 18.761719 0 18.929688 -0.101562 19 -0.269531 L 25.578125 -13.496094 L 25.578125 -0.507812 C 25.578125 -0.203125 25.78125 0 26.085938 0 L 30.84375 0 C 31.144531 0 31.347656 -0.203125 31.347656 -0.507812 Z M 31.347656 -23.113281 "
           id="path789"
           style="fill:#ffffff" />
      </g>
    </g>
  </g>
  <g
     fill="#000000"
     fill-opacity="1"
     id="g803"
     style="fill:#ffffff">
    <g
       transform="translate(54.426697, 195.165904)"
       id="g801"
       style="fill:#ffffff">
      <g
         id="g799"
         style="fill:#ffffff">
        <path
           d="M 10.15625 -18.1875 C 3.878906 -18.1875 1.011719 -13.597656 1.011719 -8.976562 C 1.011719 -4.21875 4.082031 0.335938 9.652344 0.335938 C 12.824219 0.335938 14.949219 -1.046875 15.859375 -2.800781 L 15.859375 -0.507812 C 15.859375 -0.203125 16.0625 0 16.367188 0 L 20.3125 0 C 20.617188 0 20.820312 -0.203125 20.820312 -0.507812 L 20.820312 -17.378906 C 20.820312 -17.683594 20.617188 -17.882812 20.3125 -17.882812 L 16.367188 -17.882812 C 16.0625 -17.882812 15.859375 -17.683594 15.859375 -17.378906 L 15.859375 -15.925781 C 14.949219 -17.140625 13.023438 -18.1875 10.15625 -18.1875 Z M 11.269531 -14.105469 C 14.375 -14.105469 15.894531 -11.167969 15.894531 -8.976562 C 15.894531 -6.308594 13.769531 -3.878906 10.96875 -3.878906 C 8.03125 -3.878906 6.074219 -6.207031 6.074219 -8.976562 C 6.074219 -11.777344 8.300781 -14.105469 11.269531 -14.105469 Z M 11.269531 -14.105469 "
           id="path797"
           style="fill:#ffffff" />
      </g>
    </g>
  </g>
  <g
     fill="#000000"
     fill-opacity="1"
     id="g811"
     style="fill:#ffffff">
    <g
       transform="translate(77.271691, 195.165904)"
       id="g809"
       style="fill:#ffffff">
      <g
         id="g807"
         style="fill:#ffffff">
        <path
           d="M 8.636719 -18.222656 L 8.636719 -24.195312 C 8.636719 -24.5 8.4375 -24.699219 8.132812 -24.699219 L 4.015625 -24.699219 C 3.710938 -24.699219 3.507812 -24.5 3.507812 -24.195312 L 3.507812 -18.222656 L 1.179688 -18.222656 C 0.878906 -18.222656 0.675781 -18.019531 0.675781 -17.714844 L 0.675781 -14.476562 C 0.675781 -14.171875 0.878906 -13.96875 1.179688 -13.96875 L 3.507812 -13.96875 L 3.507812 -5.433594 C 3.507812 -3.441406 4.082031 -1.6875 5.367188 -0.742188 C 5.972656 -0.335938 6.953125 0.269531 9.414062 0.304688 C 14.746094 0.371094 16.265625 -2.96875 16.332031 -2.902344 L 14.511719 -4.691406 C 14.308594 -4.859375 14.039062 -4.859375 13.835938 -4.691406 C 13.09375 -4.152344 12.082031 -3.949219 11.035156 -3.949219 C 9.480469 -3.949219 8.570312 -4.554688 8.570312 -5.90625 L 8.570312 -13.96875 L 13.699219 -13.96875 C 14.003906 -13.96875 14.207031 -14.171875 14.207031 -14.476562 L 14.207031 -17.714844 C 14.207031 -18.019531 14.003906 -18.222656 13.699219 -18.222656 Z M 8.636719 -18.222656 "
           id="path805"
           style="fill:#ffffff" />
      </g>
    </g>
  </g>
  <g
     fill="#000000"
     fill-opacity="1"
     id="g819"
     style="fill:#ffffff">
    <g
       transform="translate(94.61634, 195.165904)"
       id="g817"
       style="fill:#ffffff">
      <g
         id="g815"
         style="fill:#ffffff">
        <path
           d="M 9.382812 -18.1875 C 3.308594 -18.1875 0.335938 -13.867188 0.335938 -8.910156 L 0.335938 -8.808594 C 0.335938 -4.386719 3.644531 0.335938 9.582031 0.335938 C 13.226562 0.335938 15.792969 -0.675781 17.511719 -3.136719 C 17.683594 -3.40625 17.714844 -3.679688 17.480469 -3.914062 L 15.894531 -5.398438 C 15.691406 -5.566406 15.523438 -5.636719 15.253906 -5.433594 C 12.722656 -3.375 11.203125 -3.476562 9.683594 -3.476562 C 7.660156 -3.476562 5.164062 -5.433594 5.164062 -7.050781 L 17.785156 -7.050781 C 17.917969 -7.050781 18.054688 -7.121094 18.15625 -7.253906 C 18.355469 -7.625 18.390625 -8.4375 18.390625 -9.28125 C 18.390625 -14.511719 15.355469 -18.1875 9.382812 -18.1875 Z M 9.414062 -14.105469 C 12.382812 -14.105469 14.273438 -12.417969 14.273438 -10.324219 L 5.09375 -10.324219 C 5.09375 -11.910156 6.984375 -14.105469 9.414062 -14.105469 Z M 9.414062 -14.105469 "
           id="path813"
           style="fill:#ffffff" />
      </g>
    </g>
  </g>
  <g
     fill="#000000"
     fill-opacity="1"
     id="g827"
     style="fill:#ffffff">
    <g
       transform="translate(114.3231, 195.165904)"
       id="g825"
       style="fill:#ffffff">
      <g
         id="g823"
         style="fill:#ffffff">
        <path
           d="M 14.039062 -17.546875 C 14.039062 -17.917969 13.769531 -18.15625 13.429688 -18.085938 C 11.910156 -17.851562 8.167969 -16.941406 6.410156 -13.53125 L 6.410156 -17.378906 C 6.410156 -17.683594 6.207031 -17.882812 5.90625 -17.882812 L 1.855469 -17.882812 C 1.550781 -17.882812 1.351562 -17.683594 1.351562 -17.378906 L 1.351562 -0.507812 C 1.351562 -0.203125 1.550781 0 1.855469 0 L 5.90625 0 C 6.207031 0 6.410156 -0.203125 6.410156 -0.507812 L 6.410156 -5.871094 C 6.410156 -7.964844 5.636719 -13.566406 13.667969 -13.566406 C 13.867188 -13.566406 14.039062 -13.769531 14.039062 -14.070312 Z M 14.039062 -17.546875 "
           id="path821"
           style="fill:#ffffff" />
      </g>
    </g>
  </g>
  <g
     fill="#000000"
     fill-opacity="1"
     id="g835"
     style="fill:#ffffff">
    <g
       transform="translate(129.204399, 195.165904)"
       id="g833"
       style="fill:#ffffff">
      <g
         id="g831"
         style="fill:#ffffff">
        <path
           d="M 7.863281 -23.789062 C 7.863281 -24.09375 7.660156 -24.296875 7.355469 -24.296875 L 2.867188 -24.296875 C 2.566406 -24.296875 2.363281 -24.09375 2.363281 -23.789062 L 2.363281 -20.28125 C 2.363281 -19.976562 2.566406 -19.773438 2.867188 -19.773438 L 7.355469 -19.773438 C 7.660156 -19.773438 7.863281 -19.976562 7.863281 -20.28125 Z M 7.695312 -17.378906 C 7.695312 -17.683594 7.492188 -17.882812 7.1875 -17.882812 L 3.070312 -17.882812 C 2.765625 -17.882812 2.566406 -17.683594 2.566406 -17.378906 L 2.632812 -0.507812 C 2.632812 -0.203125 2.835938 0 3.136719 0 L 7.1875 0 C 7.492188 0 7.695312 -0.203125 7.695312 -0.507812 Z M 7.695312 -17.378906 "
           id="path829"
           style="fill:#ffffff" />
      </g>
    </g>
  </g>
  <g
     fill="#000000"
     fill-opacity="1"
     id="g843"
     style="fill:#ffffff">
    <g
       transform="translate(139.428965, 195.165904)"
       id="g841"
       style="fill:#ffffff">
      <g
         id="g839"
         style="fill:#ffffff">
        <path
           d="M 10.15625 -18.1875 C 3.878906 -18.1875 1.011719 -13.597656 1.011719 -8.976562 C 1.011719 -4.21875 4.082031 0.335938 9.652344 0.335938 C 12.824219 0.335938 14.949219 -1.046875 15.859375 -2.800781 L 15.859375 -0.507812 C 15.859375 -0.203125 16.0625 0 16.367188 0 L 20.3125 0 C 20.617188 0 20.820312 -0.203125 20.820312 -0.507812 L 20.820312 -17.378906 C 20.820312 -17.683594 20.617188 -17.882812 20.3125 -17.882812 L 16.367188 -17.882812 C 16.0625 -17.882812 15.859375 -17.683594 15.859375 -17.378906 L 15.859375 -15.925781 C 14.949219 -17.140625 13.023438 -18.1875 10.15625 -18.1875 Z M 11.269531 -14.105469 C 14.375 -14.105469 15.894531 -11.167969 15.894531 -8.976562 C 15.894531 -6.308594 13.769531 -3.878906 10.96875 -3.878906 C 8.03125 -3.878906 6.074219 -6.207031 6.074219 -8.976562 C 6.074219 -11.777344 8.300781 -14.105469 11.269531 -14.105469 Z M 11.269531 -14.105469 "
           id="path837"
           style="fill:#ffffff" />
      </g>
    </g>
  </g>
  <g
     fill="#000000"
     fill-opacity="1"
     id="g851"
     style="fill:#ffffff">
    <g
       transform="translate(162.273959, 195.165904)"
       id="g849"
       style="fill:#ffffff">
      <g
         id="g847"
         style="fill:#ffffff">
        <path
           d="M 7.355469 -24.226562 C 7.355469 -24.53125 7.152344 -24.734375 6.851562 -24.734375 L 2.867188 -24.734375 C 2.566406 -24.734375 2.363281 -24.53125 2.363281 -24.226562 L 2.363281 -0.507812 C 2.363281 -0.203125 2.566406 0 2.867188 0 L 6.851562 0 C 7.152344 0 7.355469 -0.203125 7.355469 -0.507812 Z M 7.355469 -24.226562 "
           id="path845"
           style="fill:#ffffff" />
      </g>
    </g>
  </g>
  <g
     fill="#000000"
     fill-opacity="1"
     id="g857">
    <g
       transform="translate(171.992368, 195.165904)"
       id="g855">
      <g
         id="g853" />
    </g>
  </g>
  <g
     fill="#000000"
     fill-opacity="1"
     id="g865"
     style="fill:#ffffff">
    <g
       transform="translate(180.428483, 195.165904)"
       id="g863"
       style="fill:#ffffff">
      <g
         id="g861"
         style="fill:#ffffff">
        <path
           d="M 3.207031 -23.621094 C 2.902344 -23.621094 2.699219 -23.417969 2.699219 -23.113281 L 2.699219 -0.507812 C 2.699219 -0.203125 2.902344 0 3.207031 0 L 13.867188 0 C 26.65625 0 28.144531 -5.566406 28.144531 -12.183594 L 28.144531 -12.28125 C 28.144531 -18.929688 26.828125 -23.621094 13.867188 -23.621094 Z M 8.671875 -4.792969 L 8.671875 -18.929688 L 13.296875 -18.898438 C 22.40625 -18.898438 22.304688 -16.398438 22.304688 -12.183594 C 22.304688 -7.929688 22.238281 -4.757812 13.296875 -4.757812 Z M 8.671875 -4.792969 "
           id="path859"
           style="fill:#ffffff" />
      </g>
    </g>
  </g>
  <g
     fill="#000000"
     fill-opacity="1"
     id="g873"
     style="fill:#ffffff">
    <g
       transform="translate(210.596025, 195.165904)"
       id="g871"
       style="fill:#ffffff">
      <g
         id="g869"
         style="fill:#ffffff">
        <path
           d="M 7.863281 -23.789062 C 7.863281 -24.09375 7.660156 -24.296875 7.355469 -24.296875 L 2.867188 -24.296875 C 2.566406 -24.296875 2.363281 -24.09375 2.363281 -23.789062 L 2.363281 -20.28125 C 2.363281 -19.976562 2.566406 -19.773438 2.867188 -19.773438 L 7.355469 -19.773438 C 7.660156 -19.773438 7.863281 -19.976562 7.863281 -20.28125 Z M 7.695312 -17.378906 C 7.695312 -17.683594 7.492188 -17.882812 7.1875 -17.882812 L 3.070312 -17.882812 C 2.765625 -17.882812 2.566406 -17.683594 2.566406 -17.378906 L 2.632812 -0.507812 C 2.632812 -0.203125 2.835938 0 3.136719 0 L 7.1875 0 C 7.492188 0 7.695312 -0.203125 7.695312 -0.507812 Z M 7.695312 -17.378906 "
           id="path867"
           style="fill:#ffffff" />
      </g>
    </g>
  </g>
  <g
     fill="#000000"
     fill-opacity="1"
     id="g881"
     style="fill:#ffffff">
    <g
       transform="translate(220.820592, 195.165904)"
       id="g879"
       style="fill:#ffffff">
      <g
         id="g877"
         style="fill:#ffffff">
        <path
           d="M 21.125 -24.226562 C 21.125 -24.53125 20.921875 -24.734375 20.617188 -24.734375 L 16.667969 -24.734375 C 16.367188 -24.734375 16.164062 -24.53125 16.164062 -24.226562 L 16.164062 -15.894531 C 15.253906 -16.90625 13.328125 -18.1875 10.460938 -18.1875 C -2.226562 -18.1875 -1.046875 0.335938 9.953125 0.335938 C 13.125 0.335938 15.253906 -1.621094 16.164062 -2.765625 L 16.164062 -0.507812 C 16.164062 -0.203125 16.367188 0 16.667969 0 L 20.617188 0 C 20.921875 0 21.125 -0.203125 21.125 -0.507812 Z M 11.066406 -13.867188 C 13.835938 -13.867188 16.097656 -11.609375 16.097656 -8.808594 C 16.097656 -6.039062 13.835938 -3.78125 11.066406 -3.78125 C 8.265625 -3.78125 6.007812 -6.039062 6.007812 -8.808594 C 6.007812 -11.609375 8.265625 -13.867188 11.066406 -13.867188 Z M 11.066406 -13.867188 "
           id="path875"
           style="fill:#ffffff" />
      </g>
    </g>
  </g>
  <g
     fill="#000000"
     fill-opacity="1"
     id="g889"
     style="fill:#ffffff">
    <g
       transform="translate(244.509198, 195.165904)"
       id="g887"
       style="fill:#ffffff">
      <g
         id="g885"
         style="fill:#ffffff">
        <path
           d="M 13.800781 -26.21875 C 13.9375 -26.625 13.667969 -26.996094 13.261719 -26.996094 L 10.460938 -26.996094 C 10.222656 -26.996094 10.023438 -26.859375 9.988281 -26.625 L 8.941406 -21.832031 C 8.875 -21.527344 9.042969 -21.257812 9.347656 -21.191406 L 11.507812 -20.855469 C 11.742188 -20.820312 11.980469 -20.957031 12.046875 -21.191406 Z M 10.15625 -18.1875 C 3.878906 -18.1875 1.011719 -13.597656 1.011719 -8.976562 C 1.011719 -4.21875 4.082031 0.335938 9.652344 0.335938 C 12.824219 0.335938 14.949219 -1.046875 15.859375 -2.800781 L 15.859375 -0.507812 C 15.859375 -0.203125 16.0625 0 16.367188 0 L 20.3125 0 C 20.617188 0 20.820312 -0.203125 20.820312 -0.507812 L 20.820312 -17.378906 C 20.820312 -17.683594 20.617188 -17.882812 20.3125 -17.882812 L 16.367188 -17.882812 C 16.0625 -17.882812 15.859375 -17.683594 15.859375 -17.378906 L 15.859375 -15.925781 C 14.949219 -17.140625 13.023438 -18.1875 10.15625 -18.1875 Z M 11.269531 -14.441406 C 14.375 -14.441406 15.894531 -11.507812 15.894531 -9.3125 C 15.894531 -6.648438 13.769531 -4.21875 10.96875 -4.21875 C 8.03125 -4.21875 6.074219 -6.546875 6.074219 -9.3125 C 6.074219 -12.113281 8.300781 -14.441406 11.269531 -14.441406 Z M 11.269531 -14.441406 "
           id="path883"
           style="fill:#ffffff" />
      </g>
    </g>
  </g>
  <g
     fill="#000000"
     fill-opacity="1"
     id="g897"
     style="fill:#ffffff">
    <g
       transform="translate(267.35418, 195.165904)"
       id="g895"
       style="fill:#ffffff">
      <g
         id="g893"
         style="fill:#ffffff">
        <path
           d="M 11.203125 -18.15625 C 5.265625 -18.15625 1.011719 -13.9375 1.011719 -8.941406 L 1.011719 -8.839844 C 1.011719 -3.8125 5.296875 0.304688 11.101562 0.304688 C 14.710938 0.304688 16.839844 -0.878906 18.660156 -2.566406 C 18.898438 -2.765625 18.898438 -3.105469 18.660156 -3.308594 L 16.164062 -5.601562 C 15.996094 -5.769531 15.726562 -5.769531 15.523438 -5.601562 C 14.207031 -4.589844 12.6875 -4.050781 10.96875 -4.050781 C 3.679688 -4.050781 4.757812 -13.769531 10.730469 -13.769531 C 12.554688 -13.769531 14.039062 -13.226562 15.21875 -12.214844 C 15.453125 -12.011719 15.726562 -12.011719 15.925781 -12.214844 L 18.558594 -14.8125 C 18.761719 -15.015625 18.761719 -15.355469 18.558594 -15.554688 C 16.804688 -17.175781 14.613281 -18.15625 11.203125 -18.15625 Z M 11.203125 -18.15625 "
           id="path891"
           style="fill:#ffffff" />
      </g>
    </g>
  </g>
  <g
     fill="#000000"
     fill-opacity="1"
     id="g905"
     style="fill:#ffffff">
    <g
       transform="translate(287.53336, 195.165904)"
       id="g903"
       style="fill:#ffffff">
      <g
         id="g901"
         style="fill:#ffffff">
        <path
           d="M 8.636719 -18.222656 L 8.636719 -24.195312 C 8.636719 -24.5 8.4375 -24.699219 8.132812 -24.699219 L 4.015625 -24.699219 C 3.710938 -24.699219 3.507812 -24.5 3.507812 -24.195312 L 3.507812 -18.222656 L 1.179688 -18.222656 C 0.878906 -18.222656 0.675781 -18.019531 0.675781 -17.714844 L 0.675781 -14.476562 C 0.675781 -14.171875 0.878906 -13.96875 1.179688 -13.96875 L 3.507812 -13.96875 L 3.507812 -5.433594 C 3.507812 -3.441406 4.082031 -1.6875 5.367188 -0.742188 C 5.972656 -0.335938 6.953125 0.269531 9.414062 0.304688 C 14.746094 0.371094 16.265625 -2.96875 16.332031 -2.902344 L 14.511719 -4.691406 C 14.308594 -4.859375 14.039062 -4.859375 13.835938 -4.691406 C 13.09375 -4.152344 12.082031 -3.949219 11.035156 -3.949219 C 9.480469 -3.949219 8.570312 -4.554688 8.570312 -5.90625 L 8.570312 -13.96875 L 13.699219 -13.96875 C 14.003906 -13.96875 14.207031 -14.171875 14.207031 -14.476562 L 14.207031 -17.714844 C 14.207031 -18.019531 14.003906 -18.222656 13.699219 -18.222656 Z M 8.636719 -18.222656 "
           id="path899"
           style="fill:#ffffff" />
      </g>
    </g>
  </g>
  <g
     fill="#000000"
     fill-opacity="1"
     id="g913"
     style="fill:#ffffff">
    <g
       transform="translate(304.877996, 195.165904)"
       id="g911"
       style="fill:#ffffff">
      <g
         id="g909"
         style="fill:#ffffff">
        <path
           d="M 7.863281 -23.789062 C 7.863281 -24.09375 7.660156 -24.296875 7.355469 -24.296875 L 2.867188 -24.296875 C 2.566406 -24.296875 2.363281 -24.09375 2.363281 -23.789062 L 2.363281 -20.28125 C 2.363281 -19.976562 2.566406 -19.773438 2.867188 -19.773438 L 7.355469 -19.773438 C 7.660156 -19.773438 7.863281 -19.976562 7.863281 -20.28125 Z M 7.695312 -17.378906 C 7.695312 -17.683594 7.492188 -17.882812 7.1875 -17.882812 L 3.070312 -17.882812 C 2.765625 -17.882812 2.566406 -17.683594 2.566406 -17.378906 L 2.632812 -0.507812 C 2.632812 -0.203125 2.835938 0 3.136719 0 L 7.1875 0 C 7.492188 0 7.695312 -0.203125 7.695312 -0.507812 Z M 7.695312 -17.378906 "
           id="path907"
           style="fill:#ffffff" />
      </g>
    </g>
  </g>
  <g
     fill="#000000"
     fill-opacity="1"
     id="g921"
     style="fill:#ffffff">
    <g
       transform="translate(315.102563, 195.165904)"
       id="g919"
       style="fill:#ffffff">
      <g
         id="g917"
         style="fill:#ffffff">
        <path
           d="M 11.203125 -18.15625 C 5.265625 -18.15625 1.011719 -13.9375 1.011719 -8.941406 L 1.011719 -8.839844 C 1.011719 -3.8125 5.296875 0.304688 11.101562 0.304688 C 14.710938 0.304688 16.839844 -0.878906 18.660156 -2.566406 C 18.898438 -2.765625 18.898438 -3.105469 18.660156 -3.308594 L 16.164062 -5.601562 C 15.996094 -5.769531 15.726562 -5.769531 15.523438 -5.601562 C 14.207031 -4.589844 12.6875 -4.050781 10.96875 -4.050781 C 3.679688 -4.050781 4.757812 -13.769531 10.730469 -13.769531 C 12.554688 -13.769531 14.039062 -13.226562 15.21875 -12.214844 C 15.453125 -12.011719 15.726562 -12.011719 15.925781 -12.214844 L 18.558594 -14.8125 C 18.761719 -15.015625 18.761719 -15.355469 18.558594 -15.554688 C 16.804688 -17.175781 14.613281 -18.15625 11.203125 -18.15625 Z M 11.203125 -18.15625 "
           id="path915"
           style="fill:#ffffff" />
      </g>
    </g>
  </g>
  <g
     fill="#000000"
     fill-opacity="1"
     id="g929"
     style="fill:#ffffff">
    <g
       transform="translate(335.281742, 195.165904)"
       id="g927"
       style="fill:#ffffff">
      <g
         id="g925"
         style="fill:#ffffff">
        <path
           d="M 9.210938 0.304688 C 14.410156 0.304688 18.324219 -3.679688 18.324219 -8.910156 C 18.324219 -14.105469 14.410156 -18.1875 9.210938 -18.1875 C 3.980469 -18.1875 0 -14.070312 0 -8.875 C 0 -3.644531 3.980469 0.304688 9.210938 0.304688 Z M 9.144531 -3.847656 C 6.378906 -3.847656 4.117188 -6.109375 4.117188 -8.839844 C 4.117188 -11.609375 6.378906 -13.867188 9.144531 -13.867188 C 11.878906 -13.867188 14.140625 -11.609375 14.140625 -8.839844 C 14.140625 -6.109375 11.878906 -3.847656 9.144531 -3.847656 Z M 9.144531 -3.847656 "
           id="path923"
           style="fill:#ffffff" />
      </g>
    </g>
  </g>
  <g
     fill="#000000"
     fill-opacity="1"
     id="g937"
     style="fill:#ffffff">
    <g
       transform="translate(119.075922, 219.590409)"
       id="g935"
       style="fill:#ffffff">
      <g
         id="g933"
         style="fill:#ffffff">
        <path
           d="M 8.023438 -3.335938 L 9.023438 0 L 12.1875 0 L 8.15625 -12.996094 L 4.300781 -12.996094 L 0.328125 0 L 3.375 0 L 4.300781 -3.335938 Z M 4.722656 -5.535156 L 5.496094 -8.292969 C 5.707031 -9.042969 5.902344 -10.027344 6.09375 -10.796875 L 6.132812 -10.796875 C 6.324219 -10.027344 6.554688 -9.0625 6.789062 -8.292969 L 7.597656 -5.535156 Z M 4.722656 -5.535156 "
           id="path931"
           style="fill:#ffffff" />
      </g>
    </g>
  </g>
  <g
     fill="#000000"
     fill-opacity="1"
     id="g945"
     style="fill:#ffffff">
    <g
       transform="translate(131.725221, 219.590409)"
       id="g943"
       style="fill:#ffffff">
      <g
         id="g941"
         style="fill:#ffffff">
        <path
           d="M 10.066406 -9.429688 L 7.117188 -9.429688 L 7.117188 -3.816406 C 7.117188 -3.585938 7.097656 -3.355469 7.019531 -3.179688 C 6.824219 -2.71875 6.363281 -2.160156 5.554688 -2.160156 C 4.53125 -2.160156 4.089844 -2.988281 4.089844 -4.359375 L 4.089844 -9.429688 L 1.136719 -9.429688 L 1.136719 -3.894531 C 1.136719 -0.984375 2.546875 0.210938 4.453125 0.210938 C 6.152344 0.210938 7.039062 -0.753906 7.40625 -1.332031 L 7.460938 -1.332031 L 7.597656 0 L 10.144531 0 C 10.105469 -0.789062 10.066406 -1.792969 10.066406 -3.027344 Z M 10.066406 -9.429688 "
           id="path939"
           style="fill:#ffffff" />
      </g>
    </g>
  </g>
  <g
     fill="#000000"
     fill-opacity="1"
     id="g953"
     style="fill:#ffffff">
    <g
       transform="translate(142.966897, 219.590409)"
       id="g951"
       style="fill:#ffffff">
      <g
         id="g949"
         style="fill:#ffffff">
        <path
           d="M 7.386719 -13.691406 L 7.386719 -8.582031 L 7.347656 -8.582031 C 6.921875 -9.234375 6.015625 -9.640625 4.859375 -9.640625 C 2.601562 -9.640625 0.617188 -7.808594 0.636719 -4.628906 C 0.636719 -1.695312 2.429688 0.210938 4.667969 0.210938 C 5.882812 0.210938 7.019531 -0.328125 7.617188 -1.386719 L 7.65625 -1.386719 L 7.789062 0 L 10.394531 0 C 10.355469 -0.636719 10.316406 -1.753906 10.316406 -2.816406 L 10.316406 -13.691406 Z M 7.386719 -4.203125 C 7.386719 -3.953125 7.367188 -3.742188 7.308594 -3.527344 C 7.132812 -2.699219 6.460938 -2.121094 5.609375 -2.121094 C 4.394531 -2.121094 3.605469 -3.125 3.605469 -4.722656 C 3.605469 -6.207031 4.300781 -7.40625 5.628906 -7.40625 C 6.535156 -7.40625 7.171875 -6.75 7.347656 -5.957031 C 7.367188 -5.804688 7.386719 -5.59375 7.386719 -5.4375 Z M 7.386719 -4.203125 "
           id="path947"
           style="fill:#ffffff" />
      </g>
    </g>
  </g>
  <g
     fill="#000000"
     fill-opacity="1"
     id="g961"
     style="fill:#ffffff">
    <g
       transform="translate(154.459243, 219.590409)"
       id="g959"
       style="fill:#ffffff">
      <g
         id="g957"
         style="fill:#ffffff">
        <path
           d="M 4.105469 0 L 4.105469 -9.429688 L 1.175781 -9.429688 L 1.175781 0 Z M 2.640625 -13.535156 C 1.695312 -13.535156 1.078125 -12.898438 1.097656 -12.050781 C 1.078125 -11.242188 1.695312 -10.585938 2.621094 -10.585938 C 3.585938 -10.585938 4.203125 -11.242188 4.203125 -12.050781 C 4.183594 -12.898438 3.585938 -13.535156 2.640625 -13.535156 Z M 2.640625 -13.535156 "
           id="path955"
           style="fill:#ffffff" />
      </g>
    </g>
  </g>
  <g
     fill="#000000"
     fill-opacity="1"
     id="g969"
     style="fill:#ffffff">
    <g
       transform="translate(159.742632, 219.590409)"
       id="g967"
       style="fill:#ffffff">
      <g
         id="g965"
         style="fill:#ffffff">
        <path
           d="M 5.667969 -9.640625 C 2.640625 -9.640625 0.636719 -7.695312 0.636719 -4.648438 C 0.636719 -1.601562 2.757812 0.210938 5.515625 0.210938 C 8.039062 0.210938 10.488281 -1.367188 10.488281 -4.820312 C 10.488281 -7.65625 8.5625 -9.640625 5.667969 -9.640625 Z M 5.59375 -7.558594 C 6.921875 -7.558594 7.460938 -6.132812 7.460938 -4.722656 C 7.460938 -3.027344 6.730469 -1.890625 5.59375 -1.890625 C 4.339844 -1.890625 3.664062 -3.105469 3.664062 -4.722656 C 3.664062 -6.113281 4.183594 -7.558594 5.59375 -7.558594 Z M 5.59375 -7.558594 "
           id="path963"
           style="fill:#ffffff" />
      </g>
    </g>
  </g>
  <g
     fill="#000000"
     fill-opacity="1"
     id="g977"
     style="fill:#ffffff">
    <g
       transform="translate(170.868614, 219.590409)"
       id="g975"
       style="fill:#ffffff">
      <g
         id="g973"
         style="fill:#ffffff">
        <path
           d="M 0.171875 -9.429688 L 3.605469 0 L 6.535156 0 L 10.046875 -9.429688 L 6.960938 -9.429688 L 5.746094 -5.050781 C 5.535156 -4.242188 5.378906 -3.527344 5.226562 -2.757812 L 5.167969 -2.757812 C 5.03125 -3.507812 4.859375 -4.261719 4.628906 -5.050781 L 3.355469 -9.429688 Z M 0.171875 -9.429688 "
           id="path971"
           style="fill:#ffffff" />
      </g>
    </g>
  </g>
  <g
     fill="#000000"
     fill-opacity="1"
     id="g985"
     style="fill:#ffffff">
    <g
       transform="translate(181.088314, 219.590409)"
       id="g983"
       style="fill:#ffffff">
      <g
         id="g981"
         style="fill:#ffffff">
        <path
           d="M 4.105469 0 L 4.105469 -9.429688 L 1.175781 -9.429688 L 1.175781 0 Z M 2.640625 -13.535156 C 1.695312 -13.535156 1.078125 -12.898438 1.097656 -12.050781 C 1.078125 -11.242188 1.695312 -10.585938 2.621094 -10.585938 C 3.585938 -10.585938 4.203125 -11.242188 4.203125 -12.050781 C 4.183594 -12.898438 3.585938 -13.535156 2.640625 -13.535156 Z M 2.640625 -13.535156 "
           id="path979"
           style="fill:#ffffff" />
      </g>
    </g>
  </g>
  <g
     fill="#000000"
     fill-opacity="1"
     id="g993"
     style="fill:#ffffff">
    <g
       transform="translate(186.371703, 219.590409)"
       id="g991"
       style="fill:#ffffff">
      <g
         id="g989"
         style="fill:#ffffff">
        <path
           d="M 0.636719 -0.460938 C 1.351562 -0.078125 2.449219 0.191406 3.683594 0.191406 C 6.382812 0.191406 7.769531 -1.097656 7.769531 -2.855469 C 7.75 -4.242188 7 -5.148438 5.207031 -5.765625 C 4.050781 -6.171875 3.683594 -6.402344 3.683594 -6.84375 C 3.683594 -7.328125 4.089844 -7.617188 4.800781 -7.617188 C 5.609375 -7.617188 6.421875 -7.308594 6.84375 -7.078125 L 7.367188 -9.101562 C 6.789062 -9.390625 5.804688 -9.640625 4.703125 -9.640625 C 2.371094 -9.640625 0.867188 -8.3125 0.867188 -6.554688 C 0.847656 -5.4375 1.601562 -4.378906 3.546875 -3.722656 C 4.648438 -3.355469 4.9375 -3.125 4.9375 -2.640625 C 4.9375 -2.160156 4.570312 -1.851562 3.683594 -1.851562 C 2.816406 -1.851562 1.695312 -2.238281 1.15625 -2.566406 Z M 0.636719 -0.460938 "
           id="path987"
           style="fill:#ffffff" />
      </g>
    </g>
  </g>
  <g
     fill="#000000"
     fill-opacity="1"
     id="g1001"
     style="fill:#ffffff">
    <g
       transform="translate(194.740292, 219.590409)"
       id="g999"
       style="fill:#ffffff">
      <g
         id="g997"
         style="fill:#ffffff">
        <path
           d="M 10.066406 -9.429688 L 7.117188 -9.429688 L 7.117188 -3.816406 C 7.117188 -3.585938 7.097656 -3.355469 7.019531 -3.179688 C 6.824219 -2.71875 6.363281 -2.160156 5.554688 -2.160156 C 4.53125 -2.160156 4.089844 -2.988281 4.089844 -4.359375 L 4.089844 -9.429688 L 1.136719 -9.429688 L 1.136719 -3.894531 C 1.136719 -0.984375 2.546875 0.210938 4.453125 0.210938 C 6.152344 0.210938 7.039062 -0.753906 7.40625 -1.332031 L 7.460938 -1.332031 L 7.597656 0 L 10.144531 0 C 10.105469 -0.789062 10.066406 -1.792969 10.066406 -3.027344 Z M 10.066406 -9.429688 "
           id="path995"
           style="fill:#ffffff" />
      </g>
    </g>
  </g>
  <g
     fill="#000000"
     fill-opacity="1"
     id="g1009"
     style="fill:#ffffff">
    <g
       transform="translate(205.981968, 219.590409)"
       id="g1007"
       style="fill:#ffffff">
      <g
         id="g1005"
         style="fill:#ffffff">
        <path
           d="M 9.179688 0 C 9.082031 -0.519531 9.042969 -1.386719 9.042969 -2.292969 L 9.042969 -5.574219 C 9.042969 -7.789062 8.039062 -9.640625 4.898438 -9.640625 C 3.179688 -9.640625 1.890625 -9.179688 1.234375 -8.8125 L 1.773438 -6.921875 C 2.390625 -7.308594 3.414062 -7.636719 4.378906 -7.636719 C 5.824219 -7.636719 6.09375 -6.921875 6.09375 -6.421875 L 6.09375 -6.285156 C 2.757812 -6.304688 0.558594 -5.128906 0.558594 -2.679688 C 0.558594 -1.175781 1.695312 0.210938 3.605469 0.210938 C 4.722656 0.210938 5.6875 -0.191406 6.304688 -0.945312 L 6.363281 -0.945312 L 6.535156 0 Z M 6.191406 -3.433594 C 6.191406 -3.257812 6.171875 -3.085938 6.132812 -2.929688 C 5.9375 -2.332031 5.339844 -1.851562 4.609375 -1.851562 C 3.953125 -1.851562 3.453125 -2.21875 3.453125 -2.96875 C 3.453125 -4.105469 4.648438 -4.472656 6.191406 -4.453125 Z M 6.191406 -3.433594 "
           id="path1003"
           style="fill:#ffffff" />
      </g>
    </g>
  </g>
  <g
     fill="#000000"
     fill-opacity="1"
     id="g1017"
     style="fill:#ffffff">
    <g
       transform="translate(216.163112, 219.590409)"
       id="g1015"
       style="fill:#ffffff">
      <g
         id="g1013"
         style="fill:#ffffff">
        <path
           d="M 1.175781 0 L 4.105469 0 L 4.105469 -13.691406 L 1.175781 -13.691406 Z M 1.175781 0 "
           id="path1011"
           style="fill:#ffffff" />
      </g>
    </g>
  </g>
  <g
     fill="#000000"
     fill-opacity="1"
     id="g1023">
    <g
       transform="translate(221.465785, 219.590409)"
       id="g1021">
      <g
         id="g1019" />
    </g>
  </g>
  <g
     fill="#000000"
     fill-opacity="1"
     id="g1031"
     style="fill:#ffffff">
    <g
       transform="translate(225.360847, 219.590409)"
       id="g1029"
       style="fill:#ffffff">
      <g
         id="g1027"
         style="fill:#ffffff">
        <path
           d="M 9.003906 -7.886719 L 4.222656 -7.886719 L 4.222656 -10.585938 L 9.292969 -10.585938 L 9.292969 -12.996094 L 1.273438 -12.996094 L 1.273438 0 L 9.5625 0 L 9.5625 -2.410156 L 4.222656 -2.410156 L 4.222656 -5.496094 L 9.003906 -5.496094 Z M 9.003906 -7.886719 "
           id="path1025"
           style="fill:#ffffff" />
      </g>
    </g>
  </g>
  <g
     fill="#000000"
     fill-opacity="1"
     id="g1039"
     style="fill:#ffffff">
    <g
       transform="translate(235.657684, 219.590409)"
       id="g1037"
       style="fill:#ffffff">
      <g
         id="g1035"
         style="fill:#ffffff">
        <path
           d="M 0.769531 -0.597656 C 1.503906 -0.191406 2.96875 0.191406 4.453125 0.191406 C 8.023438 0.191406 9.699219 -1.660156 9.699219 -3.835938 C 9.699219 -5.667969 8.621094 -6.863281 6.324219 -7.714844 C 4.648438 -8.347656 3.914062 -8.714844 3.914062 -9.542969 C 3.914062 -10.21875 4.53125 -10.796875 5.804688 -10.796875 C 7.078125 -10.796875 8.003906 -10.433594 8.523438 -10.179688 L 9.179688 -12.554688 C 8.40625 -12.898438 7.328125 -13.207031 5.863281 -13.207031 C 2.796875 -13.207031 0.945312 -11.511719 0.945312 -9.292969 C 0.945312 -7.40625 2.351562 -6.207031 4.511719 -5.457031 C 6.074219 -4.898438 6.691406 -4.433594 6.691406 -3.625 C 6.691406 -2.777344 5.976562 -2.21875 4.628906 -2.21875 C 3.375 -2.21875 2.160156 -2.621094 1.367188 -3.027344 Z M 0.769531 -0.597656 "
           id="path1033"
           style="fill:#ffffff" />
      </g>
    </g>
  </g>
  <g
     fill="#000000"
     fill-opacity="1"
     id="g1047"
     style="fill:#ffffff">
    <g
       transform="translate(246.070213, 219.590409)"
       id="g1045"
       style="fill:#ffffff">
      <g
         id="g1043"
         style="fill:#ffffff">
        <path
           d="M 1.273438 0 L 9.390625 0 L 9.390625 -2.46875 L 4.222656 -2.46875 L 4.222656 -12.996094 L 1.273438 -12.996094 Z M 1.273438 0 "
           id="path1041"
           style="fill:#ffffff" />
      </g>
    </g>
  </g>
</svg>
