<?xml version="1.0" encoding="UTF-8" standalone="no"?>
<svg
   width="500"
   zoomAndPan="magnify"
   viewBox="0 0 375 225"
   height="300"
   preserveAspectRatio="xMidYMid meet"
   version="1.0"
   id="svg170"
   sodipodi:docname="logo.svg"
   inkscape:version="1.2 (dc2aedaf03, 2022-05-15)"
   xmlns:inkscape="http://www.inkscape.org/namespaces/inkscape"
   xmlns:sodipodi="http://sodipodi.sourceforge.net/DTD/sodipodi-0.dtd"
   xmlns="http://www.w3.org/2000/svg"
   xmlns:svg="http://www.w3.org/2000/svg">
  <sodipodi:namedview
     id="namedview172"
     pagecolor="#ffffff"
     bordercolor="#000000"
     borderopacity="0.25"
     inkscape:showpageshadow="2"
     inkscape:pageopacity="0.0"
     inkscape:pagecheckerboard="0"
     inkscape:deskcolor="#d1d1d1"
     showgrid="false"
     inkscape:zoom="1.2374369"
     inkscape:cx="233.54727"
     inkscape:cy="123.64267"
     inkscape:window-width="1366"
     inkscape:window-height="705"
     inkscape:window-x="1358"
     inkscape:window-y="-8"
     inkscape:window-maximized="1"
     inkscape:current-layer="svg170" />
  <defs
     id="defs106">
    <clipPath
       id="id1">
      <path
         d="M 6.222656 18.714844 L 368.472656 18.714844 L 368.472656 206.226562 L 6.222656 206.226562 Z M 6.222656 18.714844 "
         clip-rule="nonzero"
         id="path88" />
    </clipPath>
    <clipPath
       id="id2">
      <path
         d="M 126 60.925781 L 184 60.925781 L 184 153 L 126 153 Z M 126 60.925781 "
         clip-rule="nonzero"
         id="path91" />
    </clipPath>
    <clipPath
       id="id3">
      <path
         d="M 115.457031 73 L 247.457031 73 L 247.457031 164.425781 L 115.457031 164.425781 Z M 115.457031 73 "
         clip-rule="nonzero"
         id="path94" />
    </clipPath>
    <clipPath
       id="id4">
      <path
         d="M 179 60.925781 L 237 60.925781 L 237 153 L 179 153 Z M 179 60.925781 "
         clip-rule="nonzero"
         id="path97" />
    </clipPath>
    <clipPath
       id="id5">
      <path
         d="M 45.175781 61 L 71 61 L 71 165.925781 L 45.175781 165.925781 Z M 45.175781 61 "
         clip-rule="nonzero"
         id="path100" />
    </clipPath>
    <clipPath
       id="id6">
      <path
         d="M 292 59.074219 L 318 59.074219 L 318 164.074219 L 292 164.074219 Z M 292 59.074219 "
         clip-rule="nonzero"
         id="path103" />
    </clipPath>
  </defs>
  <g
     clip-path="url(#id1)"
     id="g118">
    <path
       fill="#ffffff"
       d="M 33.078125 195.566406 C 24.167969 195.566406 16.964844 188.339844 16.964844 179.476562 L 16.964844 45.496094 C 16.964844 36.632812 24.167969 29.441406 33.078125 29.441406 L 341.652344 29.441406 C 350.527344 29.441406 357.730469 36.632812 357.730469 45.496094 L 357.730469 63.578125 L 354.417969 65.246094 C 349.882812 67.527344 346.988281 72.152344 346.988281 77.226562 L 346.988281 147.75 C 346.988281 152.824219 349.882812 157.480469 354.417969 159.726562 L 357.730469 161.398438 L 357.730469 179.476562 C 357.730469 188.339844 350.527344 195.566406 341.652344 195.566406 Z M 368.472656 179.476562 L 368.472656 45.496094 C 368.472656 30.691406 356.445312 18.714844 341.652344 18.714844 L 33.078125 18.714844 C 18.21875 18.714844 6.222656 30.691406 6.222656 45.496094 L 6.222656 179.476562 C 6.222656 194.28125 18.21875 206.292969 33.078125 206.292969 L 341.652344 206.292969 C 356.445312 206.292969 368.472656 194.28125 368.472656 179.476562 "
       fill-opacity="1"
       fill-rule="nonzero"
       id="path116" />
  </g>
  <g
     clip-path="url(#id2)"
     id="g122">
    <path
       fill="#ffffff"
       d="M 181.375 152.25 L 128.21875 152.25 C 127.964844 152.25 127.722656 152.199219 127.488281 152.101562 C 127.253906 152.003906 127.046875 151.867188 126.867188 151.6875 C 126.6875 151.503906 126.550781 151.296875 126.453125 151.0625 C 126.355469 150.828125 126.308594 150.582031 126.308594 150.328125 L 126.308594 62.847656 C 126.308594 62.589844 126.355469 62.347656 126.453125 62.109375 C 126.550781 61.875 126.6875 61.667969 126.867188 61.488281 C 127.046875 61.308594 127.253906 61.167969 127.488281 61.070312 C 127.722656 60.972656 127.964844 60.925781 128.21875 60.925781 L 169.097656 60.925781 C 170.03125 60.925781 170.953125 61.019531 171.863281 61.203125 C 172.777344 61.386719 173.664062 61.65625 174.523438 62.015625 C 175.382812 62.375 176.203125 62.8125 176.976562 63.335938 C 177.75 63.855469 178.464844 64.445312 179.125 65.109375 C 179.78125 65.769531 180.371094 66.492188 180.886719 67.269531 C 181.40625 68.046875 181.84375 68.867188 182.199219 69.734375 C 182.554688 70.597656 182.824219 71.492188 183.007812 72.410156 C 183.191406 73.328125 183.28125 74.253906 183.285156 75.191406 L 183.285156 150.328125 C 183.285156 150.582031 183.234375 150.828125 183.136719 151.0625 C 183.042969 151.296875 182.902344 151.503906 182.722656 151.6875 C 182.546875 151.867188 182.339844 152.003906 182.105469 152.101562 C 181.871094 152.199219 181.625 152.25 181.375 152.25 Z M 130.128906 148.40625 L 179.464844 148.40625 L 179.464844 75.191406 C 179.464844 74.507812 179.394531 73.828125 179.261719 73.15625 C 179.128906 72.488281 178.933594 71.835938 178.671875 71.203125 C 178.410156 70.570312 178.089844 69.972656 177.714844 69.402344 C 177.335938 68.832031 176.90625 68.308594 176.425781 67.824219 C 175.945312 67.339844 175.421875 66.90625 174.855469 66.527344 C 174.289062 66.148438 173.691406 65.824219 173.0625 65.5625 C 172.433594 65.300781 171.789062 65.101562 171.121094 64.96875 C 170.453125 64.835938 169.78125 64.769531 169.097656 64.765625 L 130.128906 64.765625 Z M 130.128906 148.40625 "
       fill-opacity="1"
       fill-rule="nonzero"
       id="path120" />
  </g>
  <path
     fill="#ffffff"
     d="M 181.199219 73.105469 C 181.316406 73.796875 181.375 74.492188 181.375 75.191406 L 181.375 76.949219 L 181.441406 76.949219 L 181.441406 75.191406 C 181.441406 74.492188 181.5 73.796875 181.613281 73.105469 Z M 181.199219 73.105469 "
     fill-opacity="1"
     fill-rule="nonzero"
     id="path124" />
  <g
     clip-path="url(#id3)"
     id="g128">
    <path
       fill="#ffffff"
       d="M 240.453125 73.105469 L 234.59375 73.105469 L 234.59375 76.949219 L 240.453125 76.949219 C 240.867188 76.949219 241.265625 77.027344 241.648438 77.1875 C 242.027344 77.347656 242.367188 77.574219 242.660156 77.867188 C 242.949219 78.160156 243.175781 78.5 243.335938 78.886719 C 243.492188 79.269531 243.574219 79.667969 243.574219 80.085938 L 243.574219 157.449219 C 243.574219 157.863281 243.492188 158.265625 243.335938 158.648438 C 243.175781 159.03125 242.949219 159.371094 242.660156 159.664062 C 242.367188 159.960938 242.027344 160.1875 241.648438 160.34375 C 241.265625 160.503906 240.867188 160.585938 240.453125 160.585938 L 122.464844 160.585938 C 122.050781 160.585938 121.652344 160.503906 121.269531 160.34375 C 120.890625 160.1875 120.550781 159.960938 120.257812 159.664062 C 119.96875 159.371094 119.742188 159.03125 119.582031 158.648438 C 119.425781 158.265625 119.34375 157.863281 119.34375 157.449219 L 119.34375 80.085938 C 119.34375 79.667969 119.425781 79.269531 119.582031 78.886719 C 119.742188 78.5 119.96875 78.160156 120.257812 77.867188 C 120.550781 77.574219 120.890625 77.347656 121.269531 77.1875 C 121.652344 77.027344 122.050781 76.949219 122.464844 76.949219 L 128.21875 76.949219 L 128.21875 73.105469 L 122.464844 73.105469 C 122.007812 73.109375 121.558594 73.152344 121.109375 73.242188 C 120.664062 73.332031 120.230469 73.464844 119.808594 73.640625 C 119.390625 73.816406 118.988281 74.03125 118.609375 74.285156 C 118.230469 74.539062 117.882812 74.828125 117.558594 75.152344 C 117.238281 75.476562 116.949219 75.828125 116.699219 76.210938 C 116.445312 76.589844 116.230469 76.992188 116.054688 77.414062 C 115.882812 77.839844 115.75 78.273438 115.660156 78.722656 C 115.570312 79.171875 115.527344 79.625 115.527344 80.085938 L 115.527344 157.449219 C 115.527344 157.90625 115.570312 158.359375 115.660156 158.808594 C 115.75 159.257812 115.882812 159.695312 116.054688 160.117188 C 116.230469 160.539062 116.445312 160.941406 116.699219 161.324219 C 116.949219 161.703125 117.238281 162.058594 117.558594 162.378906 C 117.882812 162.703125 118.234375 162.992188 118.609375 163.25 C 118.988281 163.503906 119.390625 163.71875 119.808594 163.894531 C 120.230469 164.070312 120.664062 164.203125 121.109375 164.292969 C 121.558594 164.378906 122.007812 164.425781 122.464844 164.425781 L 240.457031 164.425781 C 240.910156 164.425781 241.363281 164.378906 241.808594 164.292969 C 242.253906 164.203125 242.6875 164.070312 243.109375 163.894531 C 243.53125 163.71875 243.929688 163.503906 244.308594 163.25 C 244.6875 162.992188 245.035156 162.703125 245.359375 162.378906 C 245.679688 162.058594 245.96875 161.703125 246.222656 161.324219 C 246.476562 160.941406 246.6875 160.539062 246.863281 160.117188 C 247.039062 159.695312 247.167969 159.257812 247.257812 158.808594 C 247.347656 158.359375 247.394531 157.90625 247.394531 157.449219 L 247.394531 80.085938 C 247.394531 79.625 247.347656 79.171875 247.257812 78.722656 C 247.167969 78.273438 247.039062 77.839844 246.863281 77.414062 C 246.6875 76.992188 246.476562 76.589844 246.222656 76.210938 C 245.96875 75.828125 245.679688 75.476562 245.359375 75.152344 C 245.035156 74.828125 244.6875 74.539062 244.308594 74.285156 C 243.929688 74.03125 243.53125 73.816406 243.109375 73.640625 C 242.6875 73.464844 242.253906 73.332031 241.808594 73.242188 C 241.359375 73.152344 240.910156 73.109375 240.453125 73.105469 Z M 240.453125 73.105469 "
       fill-opacity="1"
       fill-rule="nonzero"
       id="path126" />
  </g>
  <g
     clip-path="url(#id4)"
     id="g132">
    <path
       fill="#ffffff"
       d="M 234.59375 152.25 L 181.441406 152.25 C 181.1875 152.25 180.941406 152.199219 180.710938 152.101562 C 180.476562 152.003906 180.269531 151.867188 180.089844 151.6875 C 179.910156 151.503906 179.773438 151.296875 179.675781 151.0625 C 179.578125 150.828125 179.53125 150.582031 179.53125 150.328125 L 179.53125 75.191406 C 179.53125 74.253906 179.621094 73.328125 179.804688 72.410156 C 179.988281 71.492188 180.257812 70.597656 180.613281 69.734375 C 180.972656 68.867188 181.410156 68.046875 181.925781 67.269531 C 182.441406 66.492188 183.03125 65.769531 183.691406 65.109375 C 184.347656 64.445312 185.0625 63.855469 185.839844 63.335938 C 186.613281 62.8125 187.429688 62.375 188.289062 62.015625 C 189.148438 61.65625 190.035156 61.386719 190.949219 61.203125 C 191.863281 61.019531 192.785156 60.925781 193.714844 60.925781 L 234.59375 60.925781 C 234.847656 60.925781 235.09375 60.972656 235.328125 61.070312 C 235.5625 61.167969 235.765625 61.308594 235.945312 61.488281 C 236.125 61.667969 236.261719 61.875 236.359375 62.109375 C 236.457031 62.347656 236.503906 62.589844 236.503906 62.847656 L 236.503906 150.328125 C 236.503906 150.582031 236.457031 150.828125 236.359375 151.0625 C 236.261719 151.296875 236.125 151.503906 235.945312 151.6875 C 235.765625 151.867188 235.5625 152.003906 235.328125 152.101562 C 235.09375 152.199219 234.847656 152.25 234.59375 152.25 Z M 183.351562 148.40625 L 232.6875 148.40625 L 232.6875 64.765625 L 193.714844 64.765625 C 193.035156 64.769531 192.359375 64.835938 191.695312 64.96875 C 191.027344 65.101562 190.378906 65.300781 189.75 65.5625 C 189.121094 65.824219 188.523438 66.148438 187.960938 66.527344 C 187.394531 66.90625 186.871094 67.339844 186.390625 67.824219 C 185.910156 68.308594 185.480469 68.832031 185.101562 69.402344 C 184.722656 69.972656 184.402344 70.570312 184.140625 71.203125 C 183.882812 71.835938 183.683594 72.488281 183.550781 73.15625 C 183.417969 73.828125 183.351562 74.507812 183.351562 75.191406 Z M 183.351562 148.40625 "
       fill-opacity="1"
       fill-rule="nonzero"
       id="path130" />
  </g>
  <path
     fill="#ffffff"
     d="M 167.359375 83.914062 L 142.230469 83.914062 C 141.980469 83.914062 141.734375 83.867188 141.5 83.769531 C 141.265625 83.671875 141.0625 83.535156 140.882812 83.351562 C 140.703125 83.171875 140.566406 82.964844 140.46875 82.730469 C 140.371094 82.496094 140.324219 82.25 140.324219 81.996094 C 140.324219 81.742188 140.371094 81.496094 140.46875 81.261719 C 140.566406 81.023438 140.703125 80.816406 140.882812 80.636719 C 141.0625 80.457031 141.265625 80.316406 141.5 80.21875 C 141.734375 80.125 141.980469 80.074219 142.230469 80.074219 L 167.359375 80.074219 C 167.613281 80.074219 167.855469 80.125 168.089844 80.21875 C 168.324219 80.316406 168.53125 80.457031 168.710938 80.636719 C 168.890625 80.816406 169.027344 81.023438 169.125 81.261719 C 169.222656 81.496094 169.269531 81.742188 169.269531 81.996094 C 169.269531 82.25 169.222656 82.496094 169.125 82.730469 C 169.027344 82.964844 168.890625 83.171875 168.710938 83.351562 C 168.53125 83.535156 168.324219 83.671875 168.089844 83.769531 C 167.855469 83.867188 167.613281 83.914062 167.359375 83.914062 Z M 167.359375 83.914062 "
     fill-opacity="1"
     fill-rule="nonzero"
     id="path134" />
  <path
     fill="#ffffff"
     d="M 167.359375 96.882812 L 142.230469 96.882812 C 141.980469 96.882812 141.734375 96.835938 141.5 96.738281 C 141.265625 96.640625 141.0625 96.5 140.882812 96.320312 C 140.703125 96.140625 140.566406 95.933594 140.46875 95.699219 C 140.371094 95.460938 140.324219 95.21875 140.324219 94.960938 C 140.324219 94.707031 140.371094 94.460938 140.46875 94.226562 C 140.566406 93.992188 140.703125 93.785156 140.882812 93.605469 C 141.0625 93.425781 141.265625 93.285156 141.5 93.1875 C 141.734375 93.089844 141.980469 93.042969 142.230469 93.042969 L 167.359375 93.042969 C 167.613281 93.042969 167.855469 93.089844 168.089844 93.1875 C 168.324219 93.285156 168.53125 93.425781 168.710938 93.605469 C 168.890625 93.785156 169.027344 93.992188 169.125 94.226562 C 169.222656 94.460938 169.269531 94.707031 169.269531 94.960938 C 169.269531 95.21875 169.222656 95.460938 169.125 95.699219 C 169.027344 95.933594 168.890625 96.140625 168.710938 96.320312 C 168.53125 96.5 168.324219 96.640625 168.089844 96.738281 C 167.855469 96.835938 167.613281 96.882812 167.359375 96.882812 Z M 167.359375 96.882812 "
     fill-opacity="1"
     fill-rule="nonzero"
     id="path136" />
  <path
     fill="#ffffff"
     d="M 167.359375 109.851562 L 142.230469 109.851562 C 141.980469 109.851562 141.734375 109.800781 141.5 109.703125 C 141.265625 109.605469 141.0625 109.46875 140.882812 109.289062 C 140.703125 109.105469 140.566406 108.898438 140.46875 108.664062 C 140.371094 108.429688 140.324219 108.183594 140.324219 107.929688 C 140.324219 107.675781 140.371094 107.429688 140.46875 107.195312 C 140.566406 106.957031 140.703125 106.75 140.882812 106.570312 C 141.0625 106.390625 141.265625 106.253906 141.5 106.15625 C 141.734375 106.058594 141.980469 106.007812 142.230469 106.007812 L 167.359375 106.007812 C 167.613281 106.007812 167.855469 106.058594 168.089844 106.15625 C 168.324219 106.253906 168.53125 106.390625 168.710938 106.570312 C 168.890625 106.75 169.027344 106.957031 169.125 107.195312 C 169.222656 107.429688 169.269531 107.675781 169.269531 107.929688 C 169.269531 108.183594 169.222656 108.429688 169.125 108.664062 C 169.027344 108.898438 168.890625 109.105469 168.710938 109.289062 C 168.53125 109.46875 168.324219 109.605469 168.089844 109.703125 C 167.855469 109.800781 167.613281 109.851562 167.359375 109.851562 Z M 167.359375 109.851562 "
     fill-opacity="1"
     fill-rule="nonzero"
     id="path138" />
  <path
     fill="#ffffff"
     d="M 167.359375 122.816406 L 142.230469 122.816406 C 141.980469 122.816406 141.734375 122.769531 141.5 122.671875 C 141.265625 122.574219 141.0625 122.4375 140.882812 122.253906 C 140.703125 122.074219 140.566406 121.867188 140.46875 121.632812 C 140.371094 121.398438 140.324219 121.152344 140.324219 120.898438 C 140.324219 120.644531 140.371094 120.398438 140.46875 120.164062 C 140.566406 119.925781 140.703125 119.71875 140.882812 119.539062 C 141.0625 119.359375 141.265625 119.21875 141.5 119.121094 C 141.734375 119.023438 141.980469 118.976562 142.230469 118.976562 L 167.359375 118.976562 C 167.613281 118.976562 167.855469 119.023438 168.089844 119.121094 C 168.324219 119.21875 168.53125 119.359375 168.710938 119.539062 C 168.890625 119.71875 169.027344 119.925781 169.125 120.164062 C 169.222656 120.398438 169.269531 120.644531 169.269531 120.898438 C 169.269531 121.152344 169.222656 121.398438 169.125 121.632812 C 169.027344 121.867188 168.890625 122.074219 168.710938 122.253906 C 168.53125 122.4375 168.324219 122.574219 168.089844 122.671875 C 167.855469 122.769531 167.613281 122.816406 167.359375 122.816406 Z M 167.359375 122.816406 "
     fill-opacity="1"
     fill-rule="nonzero"
     id="path140" />
  <path
     fill="#ffffff"
     d="M 167.359375 135.785156 L 142.230469 135.785156 C 141.980469 135.785156 141.734375 135.738281 141.5 135.640625 C 141.265625 135.542969 141.0625 135.402344 140.882812 135.222656 C 140.703125 135.042969 140.566406 134.835938 140.46875 134.601562 C 140.371094 134.363281 140.324219 134.121094 140.324219 133.863281 C 140.324219 133.609375 140.371094 133.363281 140.46875 133.128906 C 140.566406 132.894531 140.703125 132.6875 140.882812 132.507812 C 141.0625 132.328125 141.265625 132.1875 141.5 132.089844 C 141.734375 131.992188 141.980469 131.945312 142.230469 131.945312 L 167.359375 131.945312 C 167.613281 131.945312 167.855469 131.992188 168.089844 132.089844 C 168.324219 132.1875 168.53125 132.328125 168.710938 132.507812 C 168.890625 132.6875 169.027344 132.894531 169.125 133.128906 C 169.222656 133.363281 169.269531 133.609375 169.269531 133.863281 C 169.269531 134.121094 169.222656 134.363281 169.125 134.601562 C 169.027344 134.835938 168.890625 135.042969 168.710938 135.222656 C 168.53125 135.402344 168.324219 135.542969 168.089844 135.640625 C 167.855469 135.738281 167.613281 135.785156 167.359375 135.785156 Z M 167.359375 135.785156 "
     fill-opacity="1"
     fill-rule="nonzero"
     id="path142" />
  <path
     fill="#ffffff"
     d="M 220.582031 83.914062 L 195.453125 83.914062 C 195.199219 83.914062 194.957031 83.867188 194.722656 83.769531 C 194.488281 83.671875 194.28125 83.535156 194.101562 83.351562 C 193.925781 83.171875 193.785156 82.964844 193.6875 82.730469 C 193.59375 82.496094 193.542969 82.25 193.542969 81.996094 C 193.542969 81.742188 193.59375 81.496094 193.6875 81.261719 C 193.785156 81.023438 193.925781 80.816406 194.101562 80.636719 C 194.28125 80.457031 194.488281 80.316406 194.722656 80.21875 C 194.957031 80.125 195.199219 80.074219 195.453125 80.074219 L 220.582031 80.074219 C 220.835938 80.074219 221.078125 80.125 221.3125 80.21875 C 221.546875 80.316406 221.753906 80.457031 221.933594 80.636719 C 222.109375 80.816406 222.25 81.023438 222.347656 81.261719 C 222.441406 81.496094 222.492188 81.742188 222.492188 81.996094 C 222.492188 82.25 222.441406 82.496094 222.347656 82.730469 C 222.25 82.964844 222.109375 83.171875 221.933594 83.351562 C 221.753906 83.535156 221.546875 83.671875 221.3125 83.769531 C 221.078125 83.867188 220.835938 83.914062 220.582031 83.914062 Z M 220.582031 83.914062 "
     fill-opacity="1"
     fill-rule="nonzero"
     id="path144" />
  <path
     fill="#ffffff"
     d="M 220.582031 96.882812 L 195.453125 96.882812 C 195.199219 96.882812 194.957031 96.835938 194.722656 96.738281 C 194.488281 96.640625 194.28125 96.5 194.101562 96.320312 C 193.925781 96.140625 193.785156 95.933594 193.6875 95.699219 C 193.59375 95.460938 193.542969 95.21875 193.542969 94.960938 C 193.542969 94.707031 193.59375 94.460938 193.6875 94.226562 C 193.785156 93.992188 193.925781 93.785156 194.101562 93.605469 C 194.28125 93.425781 194.488281 93.285156 194.722656 93.1875 C 194.957031 93.089844 195.199219 93.042969 195.453125 93.042969 L 220.582031 93.042969 C 220.835938 93.042969 221.078125 93.089844 221.3125 93.1875 C 221.546875 93.285156 221.753906 93.425781 221.933594 93.605469 C 222.109375 93.785156 222.25 93.992188 222.347656 94.226562 C 222.441406 94.460938 222.492188 94.707031 222.492188 94.960938 C 222.492188 95.21875 222.441406 95.460938 222.347656 95.699219 C 222.25 95.933594 222.109375 96.140625 221.933594 96.320312 C 221.753906 96.5 221.546875 96.640625 221.3125 96.738281 C 221.078125 96.835938 220.835938 96.882812 220.582031 96.882812 Z M 220.582031 96.882812 "
     fill-opacity="1"
     fill-rule="nonzero"
     id="path146" />
  <path
     fill="#ffffff"
     d="M 220.582031 109.851562 L 195.453125 109.851562 C 195.199219 109.851562 194.957031 109.800781 194.722656 109.703125 C 194.488281 109.605469 194.28125 109.46875 194.101562 109.289062 C 193.925781 109.105469 193.785156 108.898438 193.6875 108.664062 C 193.59375 108.429688 193.542969 108.183594 193.542969 107.929688 C 193.542969 107.675781 193.59375 107.429688 193.6875 107.195312 C 193.785156 106.957031 193.925781 106.75 194.101562 106.570312 C 194.28125 106.390625 194.488281 106.253906 194.722656 106.15625 C 194.957031 106.058594 195.199219 106.007812 195.453125 106.007812 L 220.582031 106.007812 C 220.835938 106.007812 221.078125 106.058594 221.3125 106.15625 C 221.546875 106.253906 221.753906 106.390625 221.933594 106.570312 C 222.109375 106.75 222.25 106.957031 222.347656 107.195312 C 222.441406 107.429688 222.492188 107.675781 222.492188 107.929688 C 222.492188 108.183594 222.441406 108.429688 222.347656 108.664062 C 222.25 108.898438 222.109375 109.105469 221.933594 109.289062 C 221.753906 109.46875 221.546875 109.605469 221.3125 109.703125 C 221.078125 109.800781 220.835938 109.851562 220.582031 109.851562 Z M 220.582031 109.851562 "
     fill-opacity="1"
     fill-rule="nonzero"
     id="path148" />
  <path
     fill="#ffffff"
     d="M 220.582031 122.816406 L 195.453125 122.816406 C 195.199219 122.816406 194.957031 122.769531 194.722656 122.671875 C 194.488281 122.574219 194.28125 122.4375 194.101562 122.253906 C 193.925781 122.074219 193.785156 121.867188 193.6875 121.632812 C 193.59375 121.398438 193.542969 121.152344 193.542969 120.898438 C 193.542969 120.644531 193.59375 120.398438 193.6875 120.164062 C 193.785156 119.925781 193.925781 119.71875 194.101562 119.539062 C 194.28125 119.359375 194.488281 119.21875 194.722656 119.121094 C 194.957031 119.023438 195.199219 118.976562 195.453125 118.976562 L 220.582031 118.976562 C 220.835938 118.976562 221.078125 119.023438 221.3125 119.121094 C 221.546875 119.21875 221.753906 119.359375 221.933594 119.539062 C 222.109375 119.71875 222.25 119.925781 222.347656 120.164062 C 222.441406 120.398438 222.492188 120.644531 222.492188 120.898438 C 222.492188 121.152344 222.441406 121.398438 222.347656 121.632812 C 222.25 121.867188 222.109375 122.074219 221.933594 122.253906 C 221.753906 122.4375 221.546875 122.574219 221.3125 122.671875 C 221.078125 122.769531 220.835938 122.816406 220.582031 122.816406 Z M 220.582031 122.816406 "
     fill-opacity="1"
     fill-rule="nonzero"
     id="path150" />
  <path
     fill="#ffffff"
     d="M 220.582031 135.785156 L 195.453125 135.785156 C 195.199219 135.785156 194.957031 135.738281 194.722656 135.640625 C 194.488281 135.542969 194.28125 135.402344 194.101562 135.222656 C 193.925781 135.042969 193.785156 134.835938 193.6875 134.601562 C 193.59375 134.363281 193.542969 134.121094 193.542969 133.863281 C 193.542969 133.609375 193.59375 133.363281 193.6875 133.128906 C 193.785156 132.894531 193.925781 132.6875 194.101562 132.507812 C 194.28125 132.328125 194.488281 132.1875 194.722656 132.089844 C 194.957031 131.992188 195.199219 131.945312 195.453125 131.945312 L 220.582031 131.945312 C 220.835938 131.945312 221.078125 131.992188 221.3125 132.089844 C 221.546875 132.1875 221.753906 132.328125 221.933594 132.507812 C 222.109375 132.6875 222.25 132.894531 222.347656 133.128906 C 222.441406 133.363281 222.492188 133.609375 222.492188 133.863281 C 222.492188 134.121094 222.441406 134.363281 222.347656 134.601562 C 222.25 134.835938 222.109375 135.042969 221.933594 135.222656 C 221.753906 135.402344 221.546875 135.542969 221.3125 135.640625 C 221.078125 135.738281 220.835938 135.785156 220.582031 135.785156 Z M 220.582031 135.785156 "
     fill-opacity="1"
     fill-rule="nonzero"
     id="path152" />
  <path
     fill="#ffffff"
     d="M 94.582031 139.96875 C 93.949219 139.96875 93.410156 139.746094 92.964844 139.296875 C 92.125 138.453125 91.332031 137.574219 90.582031 136.652344 C 89.828125 135.734375 89.125 134.777344 88.464844 133.789062 C 87.808594 132.800781 87.199219 131.78125 86.640625 130.730469 C 86.082031 129.679688 85.574219 128.605469 85.121094 127.507812 C 84.667969 126.410156 84.269531 125.289062 83.925781 124.152344 C 83.582031 123.011719 83.296875 121.859375 83.0625 120.695312 C 82.832031 119.527344 82.660156 118.351562 82.542969 117.167969 C 82.425781 115.984375 82.367188 114.800781 82.367188 113.609375 C 82.367188 112.421875 82.425781 111.234375 82.542969 110.050781 C 82.660156 108.867188 82.832031 107.691406 83.0625 106.523438 C 83.296875 105.359375 83.582031 104.207031 83.925781 103.066406 C 84.269531 101.929688 84.667969 100.8125 85.121094 99.710938 C 85.574219 98.613281 86.082031 97.539062 86.640625 96.488281 C 87.199219 95.441406 87.808594 94.421875 88.464844 93.429688 C 89.125 92.441406 89.828125 91.488281 90.582031 90.566406 C 91.332031 89.644531 92.125 88.765625 92.964844 87.921875 C 93.179688 87.707031 93.425781 87.542969 93.707031 87.425781 C 93.988281 87.3125 94.277344 87.253906 94.582031 87.253906 C 94.886719 87.253906 95.175781 87.3125 95.457031 87.425781 C 95.738281 87.542969 95.984375 87.710938 96.199219 87.925781 C 96.414062 88.140625 96.578125 88.386719 96.695312 88.667969 C 96.808594 88.949219 96.867188 89.242188 96.867188 89.546875 C 96.867188 89.847656 96.8125 90.140625 96.695312 90.421875 C 96.578125 90.703125 96.414062 90.953125 96.199219 91.167969 C 95.46875 91.902344 94.773438 92.671875 94.117188 93.476562 C 93.460938 94.28125 92.84375 95.113281 92.269531 95.980469 C 91.695312 96.84375 91.164062 97.734375 90.675781 98.652344 C 90.1875 99.566406 89.746094 100.507812 89.347656 101.46875 C 88.953125 102.425781 88.605469 103.40625 88.304688 104.398438 C 88.003906 105.394531 87.753906 106.402344 87.550781 107.417969 C 87.347656 108.4375 87.195312 109.464844 87.09375 110.5 C 86.996094 111.535156 86.945312 112.570312 86.945312 113.609375 C 86.945312 114.648438 86.996094 115.6875 87.09375 116.71875 C 87.195312 117.753906 87.347656 118.78125 87.550781 119.800781 C 87.753906 120.820312 88.003906 121.824219 88.304688 122.820312 C 88.605469 123.816406 88.953125 124.792969 89.347656 125.753906 C 89.746094 126.714844 90.1875 127.652344 90.675781 128.570312 C 91.164062 129.484375 91.695312 130.375 92.269531 131.242188 C 92.84375 132.105469 93.460938 132.9375 94.117188 133.742188 C 94.773438 134.546875 95.46875 135.316406 96.199219 136.050781 C 96.527344 136.378906 96.734375 136.773438 96.824219 137.226562 C 96.914062 137.679688 96.871094 138.121094 96.695312 138.550781 C 96.519531 138.980469 96.238281 139.324219 95.851562 139.582031 C 95.46875 139.839844 95.046875 139.96875 94.582031 139.96875 Z M 94.582031 139.96875 "
     fill-opacity="1"
     fill-rule="nonzero"
     id="path154" />
  <path
     fill="#ffffff"
     d="m 178.34449,147.75736 c -0.63281,0 -1.17187,-0.22266 -1.62109,-0.67188 -1.23047,-1.23437 -2.39844,-2.52734 -3.50391,-3.8789 -1.10937,-1.34766 -2.14453,-2.75 -3.11328,-4.20313 -0.96875,-1.45312 -1.86328,-2.94922 -2.68359,-4.49218 -0.82422,-1.53907 -1.56641,-3.11719 -2.23438,-4.73047 -0.66797,-1.61719 -1.2539,-3.25782 -1.76172,-4.92969 -0.5039,-1.67188 -0.92578,-3.36719 -1.26562,-5.07813 -0.34375,-1.71484 -0.59766,-3.4414 -0.76953,-5.17968 -0.16797,-1.73828 -0.25391,-3.48438 -0.25391,-5.23047 0,-1.7461 0.0859,-3.48828 0.25391,-5.23047 0.17187,-1.73828 0.42578,-3.46484 0.76953,-5.175782 0.33984,-1.714844 0.76172,-3.40625 1.26562,-5.078125 0.50782,-1.675782 1.09375,-3.316406 1.76172,-4.929688 0.66797,-1.617187 1.41016,-3.191406 2.23438,-4.734375 0.82031,-1.539062 1.71484,-3.039062 2.68359,-4.492187 0.96875,-1.449219 2.00391,-2.851563 3.11328,-4.203125 1.10547,-1.351563 2.27344,-2.644531 3.50391,-3.878907 0.21875,-0.214843 0.46484,-0.378906 0.74609,-0.496093 0.28125,-0.117188 0.57422,-0.171875 0.875,-0.171875 0.30469,0 0.59766,0.05859 0.87891,0.175781 0.28125,0.117187 0.52734,0.28125 0.74219,0.496094 0.21484,0.21875 0.3789,0.464843 0.49609,0.746093 0.11328,0.28125 0.17188,0.574219 0.17188,0.878907 0,0.304687 -0.0586,0.597656 -0.17579,0.878906 -0.11328,0.28125 -0.28125,0.53125 -0.49609,0.746094 -1.125,1.128906 -2.19141,2.3125 -3.19922,3.546875 -1.00781,1.234375 -1.95703,2.515625 -2.83984,3.84375 -0.88281,1.328125 -1.69922,2.695312 -2.44922,4.105468 -0.75,1.40625 -1.42969,2.847657 -2.03516,4.324219 -0.60937,1.476563 -1.14453,2.976563 -1.60547,4.503907 -0.46093,1.527343 -0.84765,3.074218 -1.16015,4.640624 -0.3086,1.566409 -0.54297,3.140629 -0.69531,4.730469 -0.15625,1.58984 -0.23438,3.17969 -0.23438,4.77734 0,1.59766 0.0781,3.1875 0.23438,4.77735 0.15234,1.58984 0.38671,3.16406 0.69531,4.73047 0.3125,1.5664 0.69922,3.11328 1.16015,4.64062 0.46094,1.52735 0.9961,3.03125 1.60547,4.50391 0.60547,1.47656 1.28516,2.91797 2.03516,4.32422 0.75,1.41015 1.56641,2.77734 2.44922,4.10547 0.88281,1.32812 1.83203,2.60937 2.83984,3.84375 1.00781,1.23437 2.07422,2.41796 3.19922,3.54687 0.32813,0.32813 0.53516,0.72266 0.62891,1.17578 0.0898,0.45703 0.0469,0.89844 -0.13282,1.32813 -0.17578,0.42578 -0.45703,0.76953 -0.84375,1.02734 -0.38281,0.25781 -0.80859,0.38672 -1.26953,0.38672 z m 0,0"
     fill-opacity="1"
     fill-rule="nonzero"
     id="path156" />
  <g
     clip-path="url(#id5)"
     id="g160">
    <path
       fill="#ffffff"
       d="M 68.621094 165.996094 C 67.988281 166 67.449219 165.773438 67.003906 165.324219 C 66.15625 164.476562 65.335938 163.609375 64.53125 162.722656 C 63.730469 161.835938 62.953125 160.929688 62.195312 160.007812 C 61.4375 159.082031 60.703125 158.136719 59.992188 157.175781 C 59.28125 156.214844 58.59375 155.238281 57.929688 154.242188 C 57.265625 153.246094 56.628906 152.234375 56.015625 151.210938 C 55.398438 150.183594 54.8125 149.140625 54.25 148.085938 C 53.6875 147.03125 53.148438 145.960938 52.640625 144.878906 C 52.128906 143.796875 51.644531 142.703125 51.1875 141.597656 C 50.730469 140.492188 50.300781 139.375 49.898438 138.25 C 49.496094 137.121094 49.121094 135.984375 48.777344 134.839844 C 48.429688 133.695312 48.109375 132.542969 47.820312 131.378906 C 47.53125 130.21875 47.269531 129.050781 47.035156 127.878906 C 46.804688 126.703125 46.597656 125.523438 46.425781 124.339844 C 46.25 123.15625 46.101562 121.96875 45.984375 120.777344 C 45.867188 119.585938 45.78125 118.394531 45.722656 117.199219 C 45.664062 116.003906 45.632812 114.808594 45.632812 113.609375 C 45.632812 112.414062 45.664062 111.214844 45.722656 110.019531 C 45.78125 108.824219 45.867188 107.632812 45.984375 106.441406 C 46.101562 105.25 46.25 104.0625 46.425781 102.878906 C 46.597656 101.695312 46.804688 100.515625 47.035156 99.339844 C 47.269531 98.167969 47.53125 97 47.820312 95.839844 C 48.109375 94.679688 48.429688 93.523438 48.777344 92.378906 C 49.121094 91.234375 49.496094 90.097656 49.898438 88.972656 C 50.300781 87.84375 50.730469 86.726562 51.1875 85.621094 C 51.644531 84.515625 52.128906 83.421875 52.640625 82.339844 C 53.148438 81.257812 53.6875 80.1875 54.25 79.132812 C 54.8125 78.078125 55.398438 77.039062 56.015625 76.011719 C 56.628906 74.984375 57.265625 73.972656 57.929688 72.976562 C 58.59375 71.984375 59.28125 71.003906 59.992188 70.042969 C 60.703125 69.082031 61.4375 68.136719 62.195312 67.214844 C 62.953125 66.289062 63.730469 65.382812 64.53125 64.496094 C 65.335938 63.609375 66.15625 62.742188 67.003906 61.894531 C 67.21875 61.679688 67.464844 61.515625 67.746094 61.398438 C 68.027344 61.28125 68.320312 61.222656 68.625 61.222656 C 68.929688 61.222656 69.222656 61.28125 69.5 61.398438 C 69.78125 61.515625 70.03125 61.679688 70.246094 61.894531 C 70.460938 62.109375 70.628906 62.359375 70.742188 62.640625 C 70.859375 62.921875 70.917969 63.214844 70.917969 63.523438 C 70.917969 63.828125 70.859375 64.121094 70.746094 64.402344 C 70.628906 64.683594 70.464844 64.933594 70.25 65.148438 C 69.457031 65.941406 68.6875 66.753906 67.933594 67.585938 C 67.183594 68.417969 66.453125 69.265625 65.742188 70.132812 C 65.03125 71 64.34375 71.882812 63.675781 72.785156 C 63.011719 73.6875 62.367188 74.601562 61.746094 75.535156 C 61.125 76.46875 60.523438 77.414062 59.949219 78.378906 C 59.375 79.339844 58.824219 80.316406 58.296875 81.304688 C 57.769531 82.292969 57.265625 83.296875 56.785156 84.3125 C 56.308594 85.324219 55.855469 86.351562 55.425781 87.386719 C 55 88.421875 54.59375 89.46875 54.21875 90.527344 C 53.839844 91.582031 53.492188 92.648438 53.164062 93.71875 C 52.839844 94.792969 52.542969 95.875 52.269531 96.964844 C 52 98.050781 51.753906 99.144531 51.535156 100.246094 C 51.316406 101.347656 51.125 102.449219 50.960938 103.5625 C 50.796875 104.671875 50.660156 105.785156 50.550781 106.898438 C 50.441406 108.015625 50.359375 109.136719 50.304688 110.253906 C 50.25 111.375 50.222656 112.496094 50.222656 113.617188 C 50.222656 114.742188 50.25 115.863281 50.304688 116.984375 C 50.359375 118.101562 50.441406 119.222656 50.550781 120.335938 C 50.660156 121.453125 50.796875 122.566406 50.960938 123.675781 C 51.125 124.785156 51.316406 125.890625 51.535156 126.992188 C 51.753906 128.09375 52 129.1875 52.269531 130.273438 C 52.542969 131.363281 52.839844 132.445312 53.164062 133.515625 C 53.492188 134.589844 53.839844 135.65625 54.21875 136.710938 C 54.59375 137.769531 55 138.816406 55.425781 139.851562 C 55.855469 140.886719 56.308594 141.914062 56.785156 142.925781 C 57.265625 143.941406 57.769531 144.941406 58.296875 145.933594 C 58.824219 146.921875 59.375 147.898438 59.949219 148.859375 C 60.523438 149.820312 61.125 150.769531 61.746094 151.703125 C 62.367188 152.636719 63.011719 153.550781 63.675781 154.453125 C 64.34375 155.355469 65.03125 156.238281 65.742188 157.105469 C 66.453125 157.972656 67.183594 158.820312 67.933594 159.652344 C 68.6875 160.484375 69.457031 161.296875 70.25 162.089844 C 70.574219 162.417969 70.78125 162.808594 70.871094 163.265625 C 70.960938 163.71875 70.917969 164.160156 70.742188 164.589844 C 70.566406 165.019531 70.285156 165.359375 69.898438 165.617188 C 69.515625 165.875 69.09375 166.007812 68.628906 166.007812 Z M 68.621094 165.996094 "
       fill-opacity="1"
       fill-rule="nonzero"
       id="path158" />
  </g>
  <path
     fill="#ffffff"
     d="M 268.617188 138.117188 C 269.25 138.117188 269.789062 137.894531 270.238281 137.445312 C 271.074219 136.601562 271.871094 135.722656 272.621094 134.800781 C 273.375 133.882812 274.078125 132.925781 274.738281 131.9375 C 275.394531 130.949219 276.003906 129.929688 276.5625 128.878906 C 277.121094 127.828125 277.625 126.753906 278.078125 125.65625 C 278.53125 124.558594 278.929688 123.4375 279.273438 122.300781 C 279.621094 121.160156 279.90625 120.007812 280.136719 118.84375 C 280.367188 117.675781 280.542969 116.5 280.660156 115.316406 C 280.773438 114.132812 280.832031 112.949219 280.832031 111.757812 C 280.832031 110.570312 280.773438 109.382812 280.660156 108.199219 C 280.542969 107.015625 280.367188 105.839844 280.136719 104.671875 C 279.90625 103.507812 279.621094 102.355469 279.273438 101.214844 C 278.929688 100.078125 278.53125 98.957031 278.078125 97.859375 C 277.625 96.761719 277.121094 95.6875 276.5625 94.636719 C 276.003906 93.585938 275.394531 92.570312 274.738281 91.578125 C 274.078125 90.589844 273.375 89.632812 272.621094 88.714844 C 271.871094 87.792969 271.074219 86.914062 270.238281 86.070312 C 270.023438 85.855469 269.773438 85.691406 269.496094 85.574219 C 269.214844 85.457031 268.921875 85.402344 268.621094 85.402344 C 268.316406 85.402344 268.023438 85.460938 267.746094 85.574219 C 267.464844 85.691406 267.21875 85.859375 267.003906 86.074219 C 266.789062 86.289062 266.625 86.535156 266.507812 86.816406 C 266.390625 87.097656 266.332031 87.390625 266.332031 87.695312 C 266.332031 87.996094 266.390625 88.289062 266.507812 88.570312 C 266.621094 88.851562 266.789062 89.101562 267 89.316406 C 267.734375 90.050781 268.429688 90.820312 269.085938 91.625 C 269.742188 92.429688 270.359375 93.261719 270.933594 94.128906 C 271.507812 94.992188 272.039062 95.882812 272.527344 96.800781 C 273.015625 97.714844 273.457031 98.65625 273.851562 99.613281 C 274.25 100.574219 274.597656 101.550781 274.898438 102.546875 C 275.199219 103.542969 275.449219 104.546875 275.652344 105.566406 C 275.851562 106.585938 276.003906 107.613281 276.105469 108.648438 C 276.207031 109.683594 276.257812 110.71875 276.257812 111.757812 C 276.257812 112.796875 276.207031 113.832031 276.105469 114.867188 C 276.003906 115.902344 275.851562 116.929688 275.652344 117.949219 C 275.449219 118.96875 275.199219 119.972656 274.898438 120.96875 C 274.597656 121.964844 274.25 122.941406 273.851562 123.902344 C 273.457031 124.859375 273.015625 125.800781 272.527344 126.714844 C 272.039062 127.632812 271.507812 128.523438 270.933594 129.386719 C 270.359375 130.253906 269.742188 131.085938 269.085938 131.890625 C 268.429688 132.695312 267.734375 133.464844 267 134.199219 C 266.675781 134.527344 266.46875 134.921875 266.378906 135.375 C 266.285156 135.828125 266.332031 136.269531 266.507812 136.699219 C 266.683594 137.128906 266.964844 137.46875 267.347656 137.730469 C 267.734375 137.988281 268.15625 138.117188 268.617188 138.117188 Z M 268.617188 138.117188 "
     fill-opacity="1"
     fill-rule="nonzero"
     id="path162" />
  <path
     fill="#ffffff"
     d="M 280.621094 150.148438 C 281.253906 150.148438 281.792969 149.925781 282.238281 149.476562 C 283.472656 148.242188 284.640625 146.949219 285.746094 145.597656 C 286.851562 144.246094 287.890625 142.847656 288.859375 141.394531 C 289.828125 139.941406 290.722656 138.445312 291.542969 136.902344 C 292.363281 135.363281 293.109375 133.785156 293.777344 132.171875 C 294.445312 130.554688 295.03125 128.914062 295.535156 127.242188 C 296.042969 125.570312 296.464844 123.875 296.804688 122.164062 C 297.144531 120.449219 297.402344 118.722656 297.570312 116.984375 C 297.742188 115.246094 297.828125 113.5 297.828125 111.753906 C 297.828125 110.007812 297.742188 108.265625 297.570312 106.523438 C 297.402344 104.785156 297.144531 103.058594 296.804688 101.347656 C 296.464844 99.632812 296.042969 97.941406 295.535156 96.265625 C 295.03125 94.59375 294.445312 92.953125 293.777344 91.339844 C 293.109375 89.722656 292.363281 88.144531 291.542969 86.605469 C 290.722656 85.066406 289.828125 83.566406 288.859375 82.113281 C 287.890625 80.664062 286.851562 79.261719 285.746094 77.910156 C 284.640625 76.558594 283.472656 75.265625 282.238281 74.03125 C 282.023438 73.816406 281.777344 73.652344 281.496094 73.535156 C 281.214844 73.417969 280.921875 73.359375 280.617188 73.363281 C 280.3125 73.363281 280.023438 73.421875 279.742188 73.539062 C 279.460938 73.65625 279.214844 73.820312 279 74.035156 C 278.785156 74.25 278.621094 74.5 278.503906 74.78125 C 278.386719 75.0625 278.328125 75.355469 278.328125 75.660156 C 278.332031 75.964844 278.386719 76.257812 278.503906 76.539062 C 278.621094 76.820312 278.785156 77.070312 279 77.285156 C 280.125 78.414062 281.191406 79.597656 282.203125 80.832031 C 283.210938 82.066406 284.15625 83.347656 285.039062 84.675781 C 285.925781 86.003906 286.742188 87.371094 287.488281 88.78125 C 288.238281 90.1875 288.917969 91.628906 289.527344 93.105469 C 290.136719 94.582031 290.671875 96.082031 291.132812 97.609375 C 291.59375 99.136719 291.980469 100.683594 292.289062 102.25 C 292.601562 103.816406 292.832031 105.390625 292.988281 106.980469 C 293.144531 108.570312 293.222656 110.160156 293.222656 111.757812 C 293.222656 113.355469 293.144531 114.945312 292.988281 116.535156 C 292.832031 118.125 292.601562 119.699219 292.289062 121.265625 C 291.980469 122.832031 291.59375 124.378906 291.132812 125.90625 C 290.671875 127.433594 290.136719 128.9375 289.527344 130.410156 C 288.917969 131.886719 288.238281 133.328125 287.488281 134.734375 C 286.742188 136.144531 285.925781 137.511719 285.039062 138.839844 C 284.15625 140.167969 283.210938 141.449219 282.203125 142.683594 C 281.191406 143.917969 280.125 145.101562 279 146.230469 C 278.675781 146.558594 278.464844 146.953125 278.375 147.40625 C 278.285156 147.863281 278.328125 148.304688 278.503906 148.734375 C 278.683594 149.160156 278.964844 149.503906 279.347656 149.761719 C 279.734375 150.019531 280.15625 150.148438 280.621094 150.148438 Z M 280.621094 150.148438 "
     fill-opacity="1"
     fill-rule="nonzero"
     id="path164" />
  <g
     clip-path="url(#id6)"
     id="g168">
    <path
       fill="#ffffff"
       d="M 294.582031 164.144531 C 295.214844 164.148438 295.753906 163.921875 296.199219 163.472656 C 297.042969 162.625 297.867188 161.757812 298.667969 160.871094 C 299.46875 159.984375 300.25 159.078125 301.007812 158.15625 C 301.765625 157.230469 302.5 156.285156 303.210938 155.324219 C 303.921875 154.363281 304.609375 153.386719 305.273438 152.390625 C 305.9375 151.394531 306.574219 150.382812 307.1875 149.355469 C 307.800781 148.332031 308.390625 147.289062 308.953125 146.234375 C 309.515625 145.179688 310.050781 144.109375 310.5625 143.027344 C 311.074219 141.945312 311.558594 140.851562 312.015625 139.746094 C 312.472656 138.640625 312.898438 137.523438 313.300781 136.398438 C 313.703125 135.269531 314.078125 134.132812 314.425781 132.988281 C 314.773438 131.84375 315.089844 130.691406 315.378906 129.527344 C 315.671875 128.367188 315.933594 127.199219 316.164062 126.027344 C 316.398438 124.851562 316.601562 123.671875 316.777344 122.488281 C 316.953125 121.304688 317.097656 120.117188 317.214844 118.925781 C 317.332031 117.734375 317.421875 116.542969 317.480469 115.347656 C 317.539062 114.152344 317.566406 112.953125 317.566406 111.757812 C 317.566406 110.5625 317.539062 109.363281 317.480469 108.167969 C 317.421875 106.972656 317.332031 105.78125 317.214844 104.589844 C 317.097656 103.398438 316.953125 102.210938 316.777344 101.027344 C 316.601562 99.84375 316.398438 98.664062 316.164062 97.488281 C 315.933594 96.316406 315.671875 95.148438 315.378906 93.988281 C 315.089844 92.828125 314.773438 91.671875 314.425781 90.527344 C 314.078125 89.382812 313.703125 88.246094 313.300781 87.121094 C 312.898438 85.992188 312.472656 84.875 312.015625 83.769531 C 311.558594 82.664062 311.074219 81.570312 310.5625 80.488281 C 310.050781 79.40625 309.515625 78.335938 308.953125 77.28125 C 308.390625 76.226562 307.800781 75.183594 307.1875 74.160156 C 306.574219 73.132812 305.9375 72.121094 305.273438 71.125 C 304.609375 70.128906 303.921875 69.152344 303.210938 68.191406 C 302.5 67.230469 301.765625 66.285156 301.007812 65.363281 C 300.25 64.4375 299.46875 63.53125 298.667969 62.644531 C 297.867188 61.757812 297.042969 60.890625 296.199219 60.042969 C 295.984375 59.828125 295.738281 59.660156 295.457031 59.546875 C 295.175781 59.429688 294.882812 59.371094 294.578125 59.371094 C 294.273438 59.371094 293.980469 59.429688 293.699219 59.546875 C 293.417969 59.664062 293.171875 59.828125 292.957031 60.042969 C 292.742188 60.257812 292.574219 60.507812 292.457031 60.789062 C 292.339844 61.070312 292.28125 61.363281 292.28125 61.667969 C 292.28125 61.976562 292.339844 62.269531 292.457031 62.550781 C 292.574219 62.832031 292.738281 63.082031 292.953125 63.296875 C 293.746094 64.089844 294.515625 64.902344 295.269531 65.734375 C 296.019531 66.5625 296.75 67.414062 297.460938 68.28125 C 298.167969 69.148438 298.859375 70.03125 299.523438 70.933594 C 300.191406 71.835938 300.835938 72.75 301.457031 73.683594 C 302.078125 74.617188 302.675781 75.5625 303.253906 76.527344 C 303.828125 77.488281 304.378906 78.464844 304.90625 79.453125 C 305.433594 80.441406 305.9375 81.445312 306.414062 82.457031 C 306.894531 83.472656 307.347656 84.5 307.773438 85.535156 C 308.203125 86.570312 308.605469 87.617188 308.984375 88.675781 C 309.359375 89.730469 309.710938 90.796875 310.035156 91.867188 C 310.359375 92.941406 310.660156 94.023438 310.929688 95.109375 C 311.203125 96.199219 311.449219 97.292969 311.667969 98.394531 C 311.882812 99.496094 312.074219 100.597656 312.238281 101.707031 C 312.402344 102.820312 312.542969 103.933594 312.652344 105.046875 C 312.761719 106.164062 312.84375 107.28125 312.898438 108.402344 C 312.953125 109.523438 312.980469 110.644531 312.980469 111.765625 C 312.980469 112.890625 312.953125 114.011719 312.898438 115.128906 C 312.84375 116.25 312.761719 117.371094 312.652344 118.484375 C 312.542969 119.601562 312.402344 120.714844 312.238281 121.824219 C 312.074219 122.933594 311.882812 124.039062 311.667969 125.140625 C 311.449219 126.242188 311.203125 127.335938 310.929688 128.421875 C 310.660156 129.511719 310.359375 130.59375 310.035156 131.664062 C 309.710938 132.738281 309.359375 133.804688 308.984375 134.859375 C 308.605469 135.917969 308.203125 136.964844 307.773438 138 C 307.347656 139.035156 306.894531 140.0625 306.414062 141.074219 C 305.9375 142.089844 305.433594 143.089844 304.90625 144.082031 C 304.378906 145.070312 303.828125 146.046875 303.253906 147.007812 C 302.675781 147.96875 302.078125 148.917969 301.457031 149.851562 C 300.835938 150.785156 300.191406 151.699219 299.523438 152.601562 C 298.859375 153.503906 298.167969 154.386719 297.460938 155.253906 C 296.75 156.121094 296.019531 156.96875 295.269531 157.800781 C 294.515625 158.632812 293.746094 159.445312 292.953125 160.238281 C 292.628906 160.566406 292.417969 160.957031 292.328125 161.414062 C 292.238281 161.867188 292.28125 162.308594 292.460938 162.738281 C 292.636719 163.164062 292.917969 163.507812 293.300781 163.765625 C 293.6875 164.023438 294.109375 164.15625 294.570312 164.15625 Z M 294.582031 164.144531 "
       fill-opacity="1"
       fill-rule="nonzero"
       id="path166" />
  </g>
</svg>
